<svg width="466" height="113" viewBox="0 0 466 113" fill="none" xmlns="http://www.w3.org/2000/svg">
<path d="M38.92 71.59L38.5 71.38C36.54 70.8667 34.4633 70.54 32.27 70.4C30.0767 70.26 27.8367 69.9567 25.55 69.49C27.79 69.9567 29.9833 70.33 32.13 70.61C34.2767 70.8433 36.4 71.31 38.5 72.01C37.8467 72.43 37.1467 72.64 36.4 72.64C35.5133 72.5467 34.6267 72.4067 33.74 72.22C32.9 72.0333 31.99 71.8933 31.01 71.8C31.01 71.52 31.08 71.31 31.22 71.17C29.8667 71.17 28.5133 71.03 27.16 70.75C25.8533 70.47 24.57 70.1667 23.31 69.84C22.05 69.4667 20.8133 69.14 19.6 68.86C18.4333 68.5333 17.3367 68.37 16.31 68.37C16.31 68.51 16.2867 68.58 16.24 68.58C17.4533 68.8133 18.5967 69.14 19.67 69.56C20.7433 69.98 21.9567 70.3067 23.31 70.54C24.6167 70.8667 25.8767 71.1 27.09 71.24C28.35 71.38 29.5867 71.5667 30.8 71.8C28.84 71.6133 26.8333 71.3333 24.78 70.96C22.7733 70.5867 20.79 70.1667 18.83 69.7L15.54 68.86C14.3733 71.8467 13.1833 74.7867 11.97 77.68C10.8033 80.5267 9.66 83.42 8.54 86.36C8.44667 86.1733 8.28333 86.0567 8.05 86.01C7.86333 86.01 7.65333 86.01 7.42 86.01C7.23333 86.01 7.04667 85.94 6.86 85.8C6.67333 85.7067 6.58 85.4733 6.58 85.1C6.58 84.7267 6.67333 84.19 6.86 83.49C7.04667 82.8367 7.39667 81.95 7.91 80.83C7.81667 80.7367 7.65333 80.69 7.42 80.69C7.23333 80.6433 7.09333 80.62 7 80.62C6.06667 82.58 5.15667 84.0733 4.27 85.1C3.43 86.1733 2.75333 86.71 2.24 86.71C1.68 86.71 1.4 86.1733 1.4 85.1C1.4 84.2133 1.56333 83.0933 1.89 81.74C2.21667 80.34 2.61333 78.8467 3.08 77.26C3.59333 75.6733 4.15333 74.04 4.76 72.36C5.36667 70.6333 5.95 68.9533 6.51 67.32C5.99667 66.9933 5.43667 66.76 4.83 66.62C4.27 66.48 3.64 66.3633 2.94 66.27C3.08 66.0833 3.15 65.85 3.15 65.57C3.15 65.29 3.17333 65.01 3.22 64.73C3.26667 64.45 3.36 64.2167 3.5 64.03C3.64 63.8433 3.89667 63.75 4.27 63.75C4.36333 63.75 4.64333 63.7967 5.11 63.89V63.26C4.36333 62.8867 3.78 62.4433 3.36 61.93C2.98667 61.4167 2.8 60.9033 2.8 60.39C2.8 59.27 3.87333 58.71 6.02 58.71C6.62667 58.71 7.23333 58.7567 7.84 58.85C8.49333 58.8967 9.14667 58.9667 9.8 59.06L13.02 51.71C13.72 50.1233 14.4667 48.49 15.26 46.81C16.1 45.13 17.08 43.4733 18.2 41.84C19.32 40.2067 20.58 38.6667 21.98 37.22C23.4267 35.7267 25.0833 34.3967 26.95 33.23L28 32.81C29.3067 33.1367 30.3567 33.4167 31.15 33.65C31.99 33.8367 32.6667 33.9767 33.18 34.07C33.6467 34.2567 34.02 34.3733 34.3 34.42H34.23L34.3 34.63C34.3 34.6767 34.2767 34.7233 34.23 34.77L35.07 36.24C38.1033 41.3267 40.67 46.6 42.77 52.06C44.87 57.52 46.6667 62.8867 48.16 68.16C48.5333 69.3267 48.9767 70.5867 49.49 71.94C50.05 73.2467 50.5633 74.5067 51.03 75.72C51.5433 76.8867 51.9633 77.96 52.29 78.94C52.6167 79.8733 52.78 80.55 52.78 80.97C52.78 81.2967 52.71 81.5067 52.57 81.6C52.43 81.6467 52.2433 81.67 52.01 81.67C50.7967 78.6367 49.6533 75.65 48.58 72.71C47.5067 69.8167 46.4567 66.9 45.43 63.96C46.3633 66.9 47.3433 69.8167 48.37 72.71C49.4433 75.65 50.5167 78.6367 51.59 81.67H51.1C50.82 81.67 50.6333 81.81 50.54 82.09C50.6333 82.1833 50.75 82.44 50.89 82.86C51.03 83.2333 51.17 83.63 51.31 84.05C51.45 84.5167 51.5667 84.9833 51.66 85.45C51.7533 85.9167 51.8 86.2667 51.8 86.5C51.8 87.5267 51.4967 88.04 50.89 88.04C50.5633 88.04 50.3067 87.97 50.12 87.83C49.9333 87.69 49.7233 87.5033 49.49 87.27L48.79 86.57C48.51 86.29 48.16 86.01 47.74 85.73L41.02 66.41C42 69.4433 42.9567 72.4767 43.89 75.51C44.87 78.5433 45.8733 81.53 46.9 84.47C46.1533 83.5833 45.4533 82.51 44.8 81.25C44.1933 79.99 43.61 78.66 43.05 77.26C42.5367 75.86 42.0467 74.4367 41.58 72.99C41.1133 71.4967 40.6467 70.0967 40.18 68.79C40.18 68.8833 40.18 68.9767 40.18 69.07C40.2267 69.1167 40.25 69.1867 40.25 69.28C40.25 70.0267 40.0167 70.5867 39.55 70.96L38.92 71.59ZM38.5 64.31C38.5933 64.31 38.7333 64.2867 38.92 64.24C39.1067 64.1467 39.2467 64.1 39.34 64.1C37.8 60.2267 36.26 56.47 34.72 52.83C33.2267 49.19 31.57 45.69 29.75 42.33L29.33 42.75L30.38 44.64C32.0133 47.6267 33.4833 50.7067 34.79 53.88C36.0967 57.0533 37.3333 60.32 38.5 63.68C37.1467 60.04 35.6767 56.4233 34.09 52.83C32.55 49.19 30.8933 45.9 29.12 42.96L28.84 43.1C27.2533 44.7333 25.76 46.6933 24.36 48.98C23.0067 51.2667 21.7233 53.6 20.51 55.98L18.69 60.39L19.88 60.67C20.58 60.8567 21.2567 61.0667 21.91 61.3C22.61 61.4867 23.2167 61.6967 23.73 61.93C24.7567 62.4433 26.11 62.84 27.79 63.12C29.47 63.4 31.1033 63.68 32.69 63.96C34.3233 64.1933 35.7233 64.4733 36.89 64.8C38.1033 65.08 38.71 65.5 38.71 66.06L30.17 65.08C30.6833 65.1733 31.3133 65.29 32.06 65.43C32.8067 65.5233 33.5533 65.64 34.3 65.78C35.0933 65.92 35.8633 66.06 36.61 66.2C37.3567 66.2933 37.9867 66.3867 38.5 66.48C38.5 66.62 38.4767 66.76 38.43 66.9C38.43 66.9933 38.43 67.0867 38.43 67.18C38.43 67.2733 38.4767 67.3433 38.57 67.39C38.71 67.39 38.85 67.4133 38.99 67.46C39.1767 67.46 39.34 67.5067 39.48 67.6C39.62 67.6467 39.76 67.7867 39.9 68.02L38.5 64.31ZM23.31 49.33C23.4033 49.33 23.4267 49.4 23.38 49.54C23.38 49.6333 23.4033 49.68 23.45 49.68C23.5433 49.68 23.8233 49.3533 24.29 48.7C24.7567 48.0467 25.2933 47.3 25.9 46.46C26.5067 45.62 27.09 44.8267 27.65 44.08C28.21 43.3333 28.6067 42.8433 28.84 42.61L28.49 42.12C27.51 43.0533 26.6 44.15 25.76 45.41C24.92 46.67 24.1033 47.9767 23.31 49.33ZM30.38 41.77C31.8733 44.29 33.25 46.9267 34.51 49.68C35.7233 52.3867 36.8667 55.0933 37.94 57.8C37.0533 55.0933 35.98 52.3867 34.72 49.68C33.4133 46.9267 31.99 44.29 30.45 41.77H30.38ZM41.09 52.27C42.5367 56.0033 43.96 59.8067 45.36 63.68C44.0533 59.9 42.6767 56.1667 41.23 52.48C39.8767 48.84 38.3133 45.1767 36.54 41.49C38.22 45.0367 39.7367 48.63 41.09 52.27ZM30.8 40.23C31.4067 40.37 31.8267 40.51 32.06 40.65C32.2933 40.79 32.4567 40.86 32.55 40.86L32.62 40.65C32.6667 40.65 32.5733 40.6267 32.34 40.58C32.1067 40.5333 31.92 40.4867 31.78 40.44L31.92 40.16L31.08 39.88L30.8 40.23ZM27.37 39.53L27.93 41L27.86 39.53C27.7667 39.53 27.65 39.5067 27.51 39.46C27.4167 39.4133 27.3233 39.39 27.23 39.39L27.37 39.53ZM29.19 41.56L28.7 41.91L29.12 42.47L29.54 42.05L29.19 41.56ZM30.17 41.42H30.24L29.89 40.93V41L30.17 41.42ZM99.499 80.83C99.1257 80.13 98.4723 79.43 97.539 78.73C96.6057 77.9833 95.4857 77.26 94.179 76.56C92.8723 75.86 91.4723 75.1833 89.979 74.53C88.4857 73.8767 87.0157 73.2467 85.569 72.64C84.1223 71.9867 82.769 71.38 81.509 70.82C80.6223 70.4467 79.8523 70.0733 79.199 69.7C80.5523 70.4933 81.9757 71.2167 83.469 71.87C85.1957 72.6633 86.9223 73.48 88.649 74.32C90.4223 75.16 92.1257 76.0467 93.759 76.98C95.3923 77.9133 96.8857 78.9867 98.239 80.2C96.8857 79.8267 95.1823 79.22 93.129 78.38C91.0757 77.4933 88.9757 76.5367 86.829 75.51C84.729 74.4367 82.6757 73.3633 80.669 72.29C78.709 71.2167 77.1223 70.2833 75.909 69.49L76.399 68.86C75.0923 67.9733 73.7623 66.9467 72.409 65.78C71.0557 64.6133 70.0057 63.33 69.259 61.93C68.7457 64.1233 68.4423 66.2233 68.349 68.23C68.2557 70.2367 68.209 72.15 68.209 73.97C68.209 74.6233 68.3723 75.2533 68.699 75.86C69.0257 76.42 69.189 76.9567 69.189 77.47C69.189 78.17 68.8623 78.59 68.209 78.73C67.8357 77.8433 67.5557 76.9567 67.369 76.07C67.1823 75.1833 67.0423 74.2967 66.949 73.41C66.949 74.3433 66.9957 75.2533 67.089 76.14C67.229 77.0733 67.4623 78.0067 67.789 78.94L66.739 79.36L67.369 80.2C67.2757 80.7133 67.0657 81.2033 66.739 81.67C66.459 82.09 66.0157 82.3 65.409 82.3C64.6623 82.3 64.0557 81.9033 63.589 81.11C63.169 80.27 62.819 79.29 62.539 78.17C62.3057 77.0033 62.1423 75.8367 62.049 74.67C62.0023 73.4567 61.979 72.4533 61.979 71.66C61.979 70.0733 61.979 68.51 61.979 66.97C62.0257 65.43 62.0957 63.8667 62.189 62.28C61.9557 63.7733 61.8157 65.29 61.769 66.83C61.769 68.37 61.769 69.91 61.769 71.45C61.769 73.0833 61.8623 74.7633 62.049 76.49C62.2357 78.2167 62.5157 79.8733 62.889 81.46C62.2823 80.9 61.8157 80.27 61.489 79.57C61.209 78.87 60.9757 78.1467 60.789 77.4C60.649 76.6067 60.5323 75.8133 60.439 75.02C60.3923 74.2267 60.3457 73.4567 60.299 72.71L61.139 72.5C60.9523 71.8 60.8357 71.1 60.789 70.4C60.7423 69.6533 60.719 68.9067 60.719 68.16C60.719 66.5267 60.8357 64.94 61.069 63.4C61.3023 61.8133 61.419 60.2033 61.419 58.57V57.73L61.349 55.98H60.929C60.8357 58.22 60.6957 60.46 60.509 62.7C60.369 64.94 60.2757 67.2033 60.229 69.49C60.1823 69.0233 60.159 68.58 60.159 68.16V66.83C60.159 63.4233 60.3223 60.0867 60.649 56.82C61.0223 53.5067 61.3957 50.17 61.769 46.81C61.8623 45.7367 62.1423 44.7567 62.609 43.87C63.0757 42.9367 63.449 41.98 63.729 41C63.9157 41.14 64.149 41.2333 64.429 41.28C64.709 41.28 64.9657 41.3033 65.199 41.35C65.4323 41.35 65.6423 41.42 65.829 41.56C66.0157 41.7 66.109 41.9333 66.109 42.26C66.109 42.4467 66.0857 42.6333 66.039 42.82L65.899 43.38L66.529 43.59C66.8557 43.0767 67.2757 42.5867 67.789 42.12C68.3023 41.6533 68.8857 41.42 69.539 41.42C70.0523 41.42 70.4257 41.63 70.659 42.05C70.8923 42.47 71.009 42.9133 71.009 43.38C71.009 43.66 70.9623 44.2433 70.869 45.13C70.8223 46.0167 70.729 47.0433 70.589 48.21C70.4957 49.3767 70.379 50.6367 70.239 51.99C70.099 53.2967 69.959 54.5333 69.819 55.7C69.7257 56.8667 69.6323 57.87 69.539 58.71C69.4457 59.5033 69.399 59.9933 69.399 60.18L71.079 56.4C70.939 56.82 70.799 57.17 70.659 57.45C70.5657 57.73 70.4723 58.01 70.379 58.29C70.2857 58.57 70.1457 58.8733 69.959 59.2C69.819 59.5267 69.609 59.9467 69.329 60.46V61.44L71.639 56.19C72.3857 56.19 73.109 56.19 73.809 56.19C74.5557 56.1433 75.3023 56.05 76.049 55.91L76.749 55.77C75.7223 55.77 74.9057 55.77 74.299 55.77C73.739 55.7233 73.2023 55.6533 72.689 55.56C74.5557 55.56 76.399 55.5367 78.219 55.49C80.0857 55.3967 81.9757 55.35 83.889 55.35C85.569 55.35 87.2257 55.3033 88.859 55.21C90.539 55.1167 92.0323 54.79 93.339 54.23C94.6923 53.67 95.789 52.8067 96.629 51.64C97.469 50.4733 97.889 48.8167 97.889 46.67C97.889 44.4767 97.609 42.7033 97.049 41.35C96.489 39.9967 95.6723 38.9467 94.599 38.2C93.5723 37.4067 92.2657 36.8933 90.679 36.66C89.0923 36.38 87.2957 36.24 85.289 36.24C81.1823 36.24 77.0523 36.4267 72.899 36.8C68.7457 37.1733 64.6857 37.8733 60.719 38.9C60.6257 38.5267 60.5557 38.2 60.509 37.92C60.4623 37.5933 60.3457 37.3133 60.159 37.08C60.159 36.8 60.4157 36.5433 60.929 36.31C61.4423 36.0767 62.0257 35.89 62.679 35.75C63.3323 35.61 63.939 35.4933 64.499 35.4C65.1057 35.3067 65.5023 35.2367 65.689 35.19V34.35C65.3623 34.3967 64.8023 34.4433 64.009 34.49C63.2157 34.5367 62.3523 34.56 61.419 34.56C60.159 34.56 58.9923 34.49 57.919 34.35C56.8457 34.1633 56.309 33.8133 56.309 33.3C56.309 32.74 56.9157 32.2033 58.129 31.69C59.389 31.1767 60.9757 30.71 62.889 30.29C64.8023 29.8233 66.9023 29.4267 69.189 29.1C71.4757 28.7733 73.669 28.4933 75.769 28.26C77.9157 27.98 79.8057 27.7933 81.439 27.7C83.119 27.56 84.2857 27.49 84.939 27.49C88.299 27.49 91.3323 27.84 94.039 28.54C96.7457 29.1933 99.0323 30.29 100.899 31.83C102.812 33.37 104.259 35.4 105.239 37.92C106.266 40.3933 106.779 43.45 106.779 47.09C106.779 50.1233 106.196 52.7133 105.029 54.86C103.909 56.96 102.392 58.6867 100.479 60.04C98.5657 61.3467 96.3723 62.3267 93.899 62.98C91.4257 63.5867 88.859 63.89 86.199 63.89C85.4523 63.89 84.7057 63.8667 83.959 63.82C83.259 63.7733 82.5357 63.7267 81.789 63.68C82.3023 64.0067 83.1423 64.45 84.309 65.01C85.5223 65.57 86.8523 66.2 88.299 66.9C89.7923 67.6 91.3323 68.3467 92.919 69.14C94.5523 69.8867 96.0223 70.6333 97.329 71.38C98.6357 72.08 99.709 72.7567 100.549 73.41C101.389 74.0167 101.809 74.5067 101.809 74.88L101.459 75.3C99.919 74.18 98.3323 73.2 96.699 72.36C95.0657 71.52 93.3857 70.7267 91.659 69.98C89.979 69.2333 88.2757 68.51 86.549 67.81C84.9157 67.11 83.2823 66.2933 81.649 65.36C83.2357 66.2933 84.8223 67.11 86.409 67.81L91.379 70.05C93.059 70.7967 94.6923 71.59 96.279 72.43C97.9123 73.2233 99.4757 74.18 100.969 75.3L100.059 76.14C100.386 76.3733 100.759 76.7 101.179 77.12C101.646 77.4933 102.066 77.9133 102.439 78.38C102.859 78.8467 103.209 79.3367 103.489 79.85C103.769 80.3167 103.909 80.76 103.909 81.18C103.909 81.7867 103.629 82.09 103.069 82.09C102.509 82.09 101.902 81.9267 101.249 81.6C100.596 81.2733 100.012 81.0167 99.499 80.83ZM84.239 55.77C83.3057 55.77 82.3257 55.7933 81.299 55.84C80.319 55.84 79.3157 55.84 78.289 55.84C79.4557 55.8867 80.669 55.9567 81.929 56.05C83.189 56.0967 84.4723 56.12 85.779 56.12C87.4123 56.12 88.999 56.0267 90.539 55.84C92.1257 55.6067 93.5257 55.1633 94.739 54.51C95.9523 53.81 96.909 52.8767 97.609 51.71C98.3557 50.4967 98.729 48.91 98.729 46.95C98.729 46.2967 98.6823 45.6667 98.589 45.06C98.4957 44.4533 98.379 43.8233 98.239 43.17H97.819C98.099 44.29 98.239 45.4333 98.239 46.6C98.239 48.7 97.8657 50.3567 97.119 51.57C96.3723 52.7833 95.369 53.7167 94.109 54.37C92.849 54.9767 91.3557 55.3733 89.629 55.56C87.949 55.7 86.1523 55.77 84.239 55.77ZM71.849 57.31C73.7157 57.4033 75.6057 57.4733 77.519 57.52C79.479 57.52 81.4857 57.52 83.539 57.52C84.7523 57.52 85.9657 57.4967 87.179 57.45C88.3923 57.3567 89.559 57.1933 90.679 56.96C90.1657 57.0533 89.6523 57.1 89.139 57.1H87.669C87.109 57.1 86.4323 57.1 85.639 57.1C84.8457 57.0533 83.9823 57.0067 83.049 56.96C82.1157 56.9133 81.1357 56.89 80.109 56.89C79.0823 56.8433 78.079 56.82 77.099 56.82C76.0257 56.82 75.0457 56.8433 74.159 56.89C73.2723 56.9367 72.5023 57.0767 71.849 57.31ZM69.189 62.7C70.1223 63.9133 71.0557 65.0567 71.989 66.13C72.969 67.1567 74.0657 68.1367 75.279 69.07C74.159 68.2767 73.0157 67.32 71.849 66.2C70.729 65.08 69.8423 63.9133 69.189 62.7ZM79.549 62.14C80.4823 62.2333 81.4157 62.3033 82.349 62.35C83.2357 62.3967 84.0757 62.4433 84.869 62.49C84.2157 62.4433 83.5623 62.3733 82.909 62.28C82.1623 62.14 81.4157 62.07 80.669 62.07H80.109C79.9223 62.07 79.7357 62.0933 79.549 62.14ZM71.639 57.31C71.5923 57.45 71.4523 57.73 71.219 58.15C71.0323 58.57 70.8223 59.0367 70.589 59.55C70.4023 60.0167 70.2157 60.46 70.029 60.88C69.8423 61.3 69.749 61.58 69.749 61.72L69.889 61.58L71.639 57.52V57.31ZM78.919 63.47H78.709C79.3623 63.9833 80.109 64.4733 80.949 64.94L78.919 63.47ZM70.309 62.28C70.4023 62.5133 70.5423 62.7933 70.729 63.12C70.9623 63.4 71.2423 63.7033 71.569 64.03C71.289 63.7033 71.0557 63.3767 70.869 63.05C70.6823 62.6767 70.5423 62.3267 70.449 62L70.309 62.28ZM78.569 69.35C78.709 69.4433 78.8257 69.5133 78.919 69.56L78.569 69.35ZM154.919 38.76C151.326 38.76 147.756 38.8767 144.209 39.11C140.663 39.2967 137.116 39.39 133.569 39.39C134.176 39.4367 134.759 39.4833 135.319 39.53C135.926 39.53 136.556 39.53 137.209 39.53C139.356 39.53 141.479 39.5067 143.579 39.46C145.726 39.3667 147.873 39.32 150.019 39.32H152.119C152.819 39.32 153.543 39.3433 154.289 39.39C153.636 39.81 152.936 40.1133 152.189 40.3C151.489 40.4867 150.766 40.6267 150.019 40.72C149.319 40.7667 148.573 40.79 147.779 40.79C147.033 40.79 146.286 40.8133 145.539 40.86L144.909 40.02C143.836 40.2067 142.763 40.3233 141.689 40.37C140.616 40.4167 139.543 40.44 138.469 40.44L132.239 40.37L132.309 41L143.999 40.93C140.033 41.1633 136.136 41.3033 132.309 41.35C132.356 41.9567 132.403 42.5633 132.449 43.17C132.496 43.73 132.566 44.3133 132.659 44.92L131.819 45.13C132.193 46.7167 132.449 48.4667 132.589 50.38C132.776 52.2467 132.939 54.16 133.079 56.12C133.219 58.08 133.406 60.0167 133.639 61.93C133.919 63.7967 134.316 65.5 134.829 67.04L135.039 66.83C134.759 65.2433 134.503 63.54 134.269 61.72C134.036 59.8533 133.803 57.9633 133.569 56.05C133.383 54.09 133.196 52.1767 133.009 50.31C132.869 48.5367 132.753 46.88 132.659 45.34C132.846 47.8133 133.126 50.4033 133.499 53.11C133.919 55.8633 134.363 58.6633 134.829 61.51C135.296 64.31 135.739 67.0867 136.159 69.84C136.626 72.5933 137.046 75.23 137.419 77.75C137.513 78.5433 137.629 79.4067 137.769 80.34C137.909 81.2267 137.979 82.1367 137.979 83.07V83.91C137.979 84.2367 137.933 84.54 137.839 84.82C137.513 84.82 137.186 84.8667 136.859 84.96C136.579 85.1 136.276 85.17 135.949 85.17C135.436 85.17 135.109 84.9133 134.969 84.4C134.876 83.8867 134.829 83.4433 134.829 83.07H134.199C134.153 83.35 134.059 83.7 133.919 84.12C133.826 84.5867 133.663 85.03 133.429 85.45C133.243 85.87 132.986 86.22 132.659 86.5C132.379 86.78 132.053 86.92 131.679 86.92C131.213 86.92 130.793 86.5933 130.419 85.94C130.046 85.2867 129.696 84.4467 129.369 83.42C129.089 82.3933 128.833 81.2733 128.599 80.06C128.413 78.8 128.226 77.61 128.039 76.49C127.899 75.3233 127.759 74.2733 127.619 73.34C127.526 72.4067 127.433 71.73 127.339 71.31C126.873 69.35 126.429 67.2033 126.009 64.87C125.636 62.5367 125.309 60.18 125.029 57.8C124.749 55.42 124.516 53.0633 124.329 50.73C124.189 48.35 124.119 46.1333 124.119 44.08C124.119 43.7533 124.119 43.45 124.119 43.17C124.166 42.8433 124.189 42.5167 124.189 42.19V41.77C124.189 41.5833 124.166 41.3967 124.119 41.21C121.366 41.1633 118.753 41.0467 116.279 40.86C113.806 40.6267 111.053 40.3233 108.019 39.95C108.066 39.67 108.089 39.3667 108.089 39.04C108.089 38.7133 108.113 38.41 108.159 38.13C108.253 37.85 108.369 37.6167 108.509 37.43C108.696 37.1967 108.999 37.08 109.419 37.08C109.699 37.08 110.026 37.1267 110.399 37.22L110.609 36.59C110.049 36.3567 109.396 35.9833 108.649 35.47C107.903 34.9567 107.529 34.35 107.529 33.65C107.529 33.23 107.693 32.9267 108.019 32.74C108.346 32.5067 108.743 32.3433 109.209 32.25C109.676 32.1567 110.143 32.11 110.609 32.11C111.076 32.0633 111.426 32.04 111.659 32.04C113.339 32.04 114.996 32.1333 116.629 32.32C118.309 32.5067 119.989 32.6 121.669 32.6C125.916 32.6 130.139 32.67 134.339 32.81C138.539 32.9033 142.763 32.95 147.009 32.95C147.849 32.95 148.666 32.8333 149.459 32.6C150.299 32.3667 151.139 32.25 151.979 32.25C152.306 32.25 152.586 32.3433 152.819 32.53C153.099 32.7167 153.239 32.9967 153.239 33.37C151.979 33.6033 150.696 33.79 149.389 33.93C148.223 34.0233 147.033 34.1167 145.819 34.21C147.033 34.21 148.223 34.1633 149.389 34.07C150.649 33.9767 151.933 33.8833 153.239 33.79V35.12L154.499 34.91C154.873 35.0033 155.223 35.19 155.549 35.47C155.876 35.7033 156.039 36.0533 156.039 36.52C156.039 36.94 155.923 37.36 155.689 37.78C155.456 38.1533 155.199 38.48 154.919 38.76ZM130.349 41.35C130.443 42.7033 130.559 44.1967 130.699 45.83C130.886 47.4633 131.073 49.12 131.259 50.8C131.446 52.48 131.633 54.1367 131.819 55.77C132.053 57.3567 132.263 58.8267 132.449 60.18C132.309 58.8733 132.146 57.4033 131.959 55.77C131.819 54.1367 131.679 52.48 131.539 50.8C131.399 49.12 131.259 47.4633 131.119 45.83C131.026 44.1967 130.979 42.7033 130.979 41.35H130.349ZM143.089 34.21H139.239C138.073 34.21 136.906 34.1867 135.739 34.14C136.299 34.2333 136.836 34.3267 137.349 34.42C138.003 34.56 138.726 34.63 139.519 34.63C140.079 34.63 140.663 34.5833 141.269 34.49C141.923 34.3967 142.529 34.3033 143.089 34.21ZM130.629 41H130.979V40.37H130.629V41ZM179.802 78.31C179.802 78.03 179.965 77.7733 180.292 77.54C180.618 77.3067 180.992 77.0967 181.412 76.91C181.878 76.7233 182.322 76.56 182.742 76.42C183.208 76.28 183.558 76.1633 183.792 76.07C186.032 76.35 188.272 76.5833 190.512 76.77C192.752 76.9567 194.992 77.05 197.232 77.05C198.072 77.05 199.238 77.05 200.732 77.05C202.225 77.0033 203.858 76.91 205.632 76.77C207.405 76.63 209.202 76.42 211.022 76.14C212.842 75.8133 214.498 75.37 215.992 74.81C217.485 74.25 218.698 73.55 219.632 72.71C220.565 71.87 221.032 70.82 221.032 69.56C221.032 68.5333 220.798 67.6233 220.332 66.83C219.912 65.99 219.328 65.2667 218.582 64.66C217.882 64.0067 217.088 63.47 216.202 63.05C215.875 62.8633 215.525 62.7 215.152 62.56C215.525 62.7467 215.875 62.9333 216.202 63.12C217.042 63.5867 217.788 64.17 218.442 64.87C219.142 65.5233 219.702 66.27 220.122 67.11C220.542 67.9033 220.752 68.8133 220.752 69.84C220.752 70.96 220.332 71.9167 219.492 72.71C218.698 73.4567 217.648 74.0867 216.342 74.6C215.082 75.1133 213.658 75.51 212.072 75.79C210.532 76.07 208.992 76.28 207.452 76.42C205.912 76.56 204.488 76.6533 203.182 76.7C201.875 76.7 200.848 76.7 200.102 76.7C197.722 76.7 195.318 76.63 192.892 76.49C190.512 76.3033 188.132 76.0933 185.752 75.86C186.592 75.6267 187.432 75.4633 188.272 75.37C189.158 75.23 190.045 75.16 190.932 75.16C192.425 75.16 193.895 75.1833 195.342 75.23C196.788 75.23 198.235 75.23 199.682 75.23C201.408 75.23 203.112 75.2067 204.792 75.16C206.472 75.0667 208.198 74.88 209.972 74.6L210.182 75.44C210.882 75.3 211.768 75.09 212.842 74.81C213.915 74.4833 214.942 74.0867 215.922 73.62C216.948 73.1533 217.812 72.57 218.512 71.87C219.258 71.17 219.632 70.3533 219.632 69.42C219.632 68.0667 219.142 66.8767 218.162 65.85C217.182 64.8233 215.922 63.9133 214.382 63.12C212.888 62.28 211.185 61.5567 209.272 60.95C207.358 60.3433 205.468 59.8067 203.602 59.34C201.782 58.8733 200.055 58.4533 198.422 58.08C196.788 57.7067 195.482 57.3567 194.502 57.03V57.45C195.482 57.8233 196.765 58.22 198.352 58.64C199.938 59.0133 201.642 59.4333 203.462 59.9C205.328 60.3667 207.195 60.9033 209.062 61.51C210.928 62.07 212.608 62.7467 214.102 63.54C215.642 64.3333 216.878 65.2433 217.812 66.27C218.792 67.2967 219.282 68.4633 219.282 69.77C219.282 70.5167 218.932 71.17 218.232 71.73C217.532 72.29 216.692 72.78 215.712 73.2C214.778 73.5733 213.822 73.8767 212.842 74.11C211.862 74.3433 211.115 74.5067 210.602 74.6C211.208 74.46 211.978 74.2733 212.912 74.04C213.892 73.76 214.825 73.41 215.712 72.99C216.645 72.57 217.438 72.08 218.092 71.52C218.745 70.9133 219.072 70.2133 219.072 69.42C219.072 68.1133 218.558 67.0167 217.532 66.13C216.505 65.2433 215.152 64.45 213.472 63.75C211.792 63.05 209.878 62.42 207.732 61.86C205.585 61.3 203.368 60.6933 201.082 60.04C198.842 59.3867 196.648 58.64 194.502 57.8C192.355 56.96 190.442 55.91 188.762 54.65C187.082 53.39 185.728 51.8967 184.702 50.17C183.675 48.4433 183.162 46.3667 183.162 43.94C183.162 41.56 183.722 39.5533 184.842 37.92C186.008 36.24 187.478 34.8867 189.252 33.86C191.072 32.7867 193.055 32.0167 195.202 31.55C197.348 31.0833 199.425 30.85 201.432 30.85C204.372 30.85 207.242 31.27 210.042 32.11C212.888 32.95 215.572 34.1167 218.092 35.61C217.812 35.7033 217.648 35.8433 217.602 36.03C217.555 36.17 217.508 36.3333 217.462 36.52C217.462 36.7067 217.415 36.87 217.322 37.01C217.275 37.15 217.135 37.22 216.902 37.22C216.715 37.22 216.342 37.15 215.782 37.01C215.268 36.8233 214.708 36.6367 214.102 36.45C213.495 36.2167 212.912 36.0067 212.352 35.82C211.792 35.6333 211.418 35.4933 211.232 35.4L211.022 36.03C211.442 36.2167 211.978 36.4967 212.632 36.87C213.332 37.1967 213.985 37.6167 214.592 38.13C215.245 38.5967 215.782 39.11 216.202 39.67C216.668 40.23 216.902 40.79 216.902 41.35C216.902 41.9567 216.622 42.26 216.062 42.26C215.362 42.26 214.522 42.0733 213.542 41.7C212.608 41.3267 211.558 40.93 210.392 40.51C209.225 40.0433 207.965 39.6233 206.612 39.25C205.305 38.8767 203.975 38.69 202.622 38.69C201.735 38.69 200.685 38.7833 199.472 38.97C198.305 39.11 197.162 39.4133 196.042 39.88C194.968 40.3 194.058 40.9067 193.312 41.7C192.565 42.4467 192.192 43.4033 192.192 44.57C192.192 45.6433 192.682 46.5533 193.662 47.3C194.688 48.0467 196.018 48.7233 197.652 49.33C199.332 49.9367 201.222 50.52 203.322 51.08C205.422 51.64 207.568 52.27 209.762 52.97C212.002 53.6233 214.172 54.3933 216.272 55.28C218.372 56.1667 220.238 57.24 221.872 58.5C223.552 59.76 224.882 61.2533 225.862 62.98C226.888 64.7067 227.402 66.7367 227.402 69.07C227.402 71.3567 226.935 73.2933 226.002 74.88C225.068 76.4667 223.832 77.7967 222.292 78.87C220.752 79.8967 219.002 80.7133 217.042 81.32C215.082 81.88 213.052 82.3233 210.952 82.65C208.898 82.93 206.845 83.0933 204.792 83.14C202.785 83.2333 200.965 83.28 199.332 83.28H192.332C191.912 83.28 191.328 83.2567 190.582 83.21C189.882 83.21 189.182 83.1633 188.482 83.07C187.782 83.0233 187.175 82.9067 186.662 82.72C186.148 82.5333 185.892 82.3 185.892 82.02L185.962 81.67C187.875 81.7633 189.765 81.8567 191.632 81.95C193.498 81.9967 195.388 82.02 197.302 82.02C199.075 82.02 200.848 82.02 202.622 82.02C204.208 81.9733 205.795 81.88 207.382 81.74C206.588 81.7867 205.795 81.8333 205.002 81.88C204.022 81.88 203.065 81.88 202.132 81.88H199.332C194.945 81.88 190.628 81.74 186.382 81.46C186.475 81.0867 186.522 80.83 186.522 80.69C186.522 80.5033 186.475 80.3167 186.382 80.13C186.288 80.13 186.148 80.1533 185.962 80.2C185.822 80.2 185.635 80.2 185.402 80.2C184.888 80.2 184.305 80.1767 183.652 80.13C183.045 80.0833 182.438 79.99 181.832 79.85C181.272 79.71 180.782 79.5233 180.362 79.29C179.988 79.01 179.802 78.6833 179.802 78.31ZM222.782 76.49C221.988 77.19 221.148 77.7733 220.262 78.24C219.468 78.66 218.652 79.0567 217.812 79.43C218.652 79.15 219.468 78.8233 220.262 78.45C221.148 78.0767 221.988 77.4233 222.782 76.49ZM275.505 38.76C271.912 38.76 268.342 38.8767 264.795 39.11C261.249 39.2967 257.702 39.39 254.155 39.39C254.762 39.4367 255.345 39.4833 255.905 39.53C256.512 39.53 257.142 39.53 257.795 39.53C259.942 39.53 262.065 39.5067 264.165 39.46C266.312 39.3667 268.459 39.32 270.605 39.32H272.705C273.405 39.32 274.129 39.3433 274.875 39.39C274.222 39.81 273.522 40.1133 272.775 40.3C272.075 40.4867 271.352 40.6267 270.605 40.72C269.905 40.7667 269.159 40.79 268.365 40.79C267.619 40.79 266.872 40.8133 266.125 40.86L265.495 40.02C264.422 40.2067 263.349 40.3233 262.275 40.37C261.202 40.4167 260.129 40.44 259.055 40.44L252.825 40.37L252.895 41L264.585 40.93C260.619 41.1633 256.722 41.3033 252.895 41.35C252.942 41.9567 252.989 42.5633 253.035 43.17C253.082 43.73 253.152 44.3133 253.245 44.92L252.405 45.13C252.779 46.7167 253.035 48.4667 253.175 50.38C253.362 52.2467 253.525 54.16 253.665 56.12C253.805 58.08 253.992 60.0167 254.225 61.93C254.505 63.7967 254.902 65.5 255.415 67.04L255.625 66.83C255.345 65.2433 255.089 63.54 254.855 61.72C254.622 59.8533 254.389 57.9633 254.155 56.05C253.969 54.09 253.782 52.1767 253.595 50.31C253.455 48.5367 253.339 46.88 253.245 45.34C253.432 47.8133 253.712 50.4033 254.085 53.11C254.505 55.8633 254.949 58.6633 255.415 61.51C255.882 64.31 256.325 67.0867 256.745 69.84C257.212 72.5933 257.632 75.23 258.005 77.75C258.099 78.5433 258.215 79.4067 258.355 80.34C258.495 81.2267 258.565 82.1367 258.565 83.07V83.91C258.565 84.2367 258.519 84.54 258.425 84.82C258.099 84.82 257.772 84.8667 257.445 84.96C257.165 85.1 256.862 85.17 256.535 85.17C256.022 85.17 255.695 84.9133 255.555 84.4C255.462 83.8867 255.415 83.4433 255.415 83.07H254.785C254.739 83.35 254.645 83.7 254.505 84.12C254.412 84.5867 254.249 85.03 254.015 85.45C253.829 85.87 253.572 86.22 253.245 86.5C252.965 86.78 252.639 86.92 252.265 86.92C251.799 86.92 251.379 86.5933 251.005 85.94C250.632 85.2867 250.282 84.4467 249.955 83.42C249.675 82.3933 249.419 81.2733 249.185 80.06C248.999 78.8 248.812 77.61 248.625 76.49C248.485 75.3233 248.345 74.2733 248.205 73.34C248.112 72.4067 248.019 71.73 247.925 71.31C247.459 69.35 247.015 67.2033 246.595 64.87C246.222 62.5367 245.895 60.18 245.615 57.8C245.335 55.42 245.102 53.0633 244.915 50.73C244.775 48.35 244.705 46.1333 244.705 44.08C244.705 43.7533 244.705 43.45 244.705 43.17C244.752 42.8433 244.775 42.5167 244.775 42.19V41.77C244.775 41.5833 244.752 41.3967 244.705 41.21C241.952 41.1633 239.339 41.0467 236.865 40.86C234.392 40.6267 231.639 40.3233 228.605 39.95C228.652 39.67 228.675 39.3667 228.675 39.04C228.675 38.7133 228.699 38.41 228.745 38.13C228.839 37.85 228.955 37.6167 229.095 37.43C229.282 37.1967 229.585 37.08 230.005 37.08C230.285 37.08 230.612 37.1267 230.985 37.22L231.195 36.59C230.635 36.3567 229.982 35.9833 229.235 35.47C228.489 34.9567 228.115 34.35 228.115 33.65C228.115 33.23 228.279 32.9267 228.605 32.74C228.932 32.5067 229.329 32.3433 229.795 32.25C230.262 32.1567 230.729 32.11 231.195 32.11C231.662 32.0633 232.012 32.04 232.245 32.04C233.925 32.04 235.582 32.1333 237.215 32.32C238.895 32.5067 240.575 32.6 242.255 32.6C246.502 32.6 250.725 32.67 254.925 32.81C259.125 32.9033 263.349 32.95 267.595 32.95C268.435 32.95 269.252 32.8333 270.045 32.6C270.885 32.3667 271.725 32.25 272.565 32.25C272.892 32.25 273.172 32.3433 273.405 32.53C273.685 32.7167 273.825 32.9967 273.825 33.37C272.565 33.6033 271.282 33.79 269.975 33.93C268.809 34.0233 267.619 34.1167 266.405 34.21C267.619 34.21 268.809 34.1633 269.975 34.07C271.235 33.9767 272.519 33.8833 273.825 33.79V35.12L275.085 34.91C275.459 35.0033 275.809 35.19 276.135 35.47C276.462 35.7033 276.625 36.0533 276.625 36.52C276.625 36.94 276.509 37.36 276.275 37.78C276.042 38.1533 275.785 38.48 275.505 38.76ZM250.935 41.35C251.029 42.7033 251.145 44.1967 251.285 45.83C251.472 47.4633 251.659 49.12 251.845 50.8C252.032 52.48 252.219 54.1367 252.405 55.77C252.639 57.3567 252.849 58.8267 253.035 60.18C252.895 58.8733 252.732 57.4033 252.545 55.77C252.405 54.1367 252.265 52.48 252.125 50.8C251.985 49.12 251.845 47.4633 251.705 45.83C251.612 44.1967 251.565 42.7033 251.565 41.35H250.935ZM263.675 34.21H259.825C258.659 34.21 257.492 34.1867 256.325 34.14C256.885 34.2333 257.422 34.3267 257.935 34.42C258.589 34.56 259.312 34.63 260.105 34.63C260.665 34.63 261.249 34.5833 261.855 34.49C262.509 34.3967 263.115 34.3033 263.675 34.21ZM251.215 41H251.565V40.37H251.215V41ZM324.215 37.92C324.028 38.6667 323.888 39.4367 323.795 40.23C323.748 41.0233 323.725 41.84 323.725 42.68C323.725 44.5 323.748 46.3667 323.795 48.28C323.842 50.1467 323.865 51.8967 323.865 53.53C323.865 56.8433 323.608 60.2033 323.095 63.61C322.628 66.97 321.718 70.05 320.365 72.85C319.012 75.65 317.098 78.03 314.625 79.99C312.152 81.9033 308.955 83.07 305.035 83.49C309.282 83.07 312.688 81.8333 315.255 79.78C317.822 77.68 319.805 75.1133 321.205 72.08C322.605 69 323.538 65.64 324.005 62C324.472 58.36 324.705 54.79 324.705 51.29C324.705 49.8433 324.682 48.3967 324.635 46.95C324.588 45.5033 324.565 44.0567 324.565 42.61V41C324.565 40.44 324.588 39.9033 324.635 39.39C325.242 40.8367 325.592 42.61 325.685 44.71C325.825 46.81 325.895 48.7933 325.895 50.66C325.895 52.62 325.872 54.37 325.825 55.91C325.778 57.4033 325.615 59.13 325.335 61.09L324.635 62.14C324.262 65.4533 323.562 68.4867 322.535 71.24C321.508 73.9933 320.085 76.3733 318.265 78.38C316.445 80.34 314.205 81.88 311.545 83C308.885 84.0733 305.782 84.61 302.235 84.61C299.295 84.61 296.402 84.19 293.555 83.35C290.755 82.5567 288.258 81.11 286.065 79.01L285.925 79.5C288.118 81.6467 290.592 83.14 293.345 83.98C296.145 84.82 299.038 85.24 302.025 85.24C305.385 85.24 308.348 84.7267 310.915 83.7C313.482 82.6733 315.698 81.25 317.565 79.43C319.478 77.5633 321.042 75.3467 322.255 72.78C323.422 70.3067 324.332 67.5533 324.985 64.52C324.332 67.6467 323.445 70.47 322.325 72.99C321.205 75.6033 319.735 77.8433 317.915 79.71C316.095 81.5767 313.902 83 311.335 83.98C308.768 85.0067 305.712 85.52 302.165 85.52C298.105 85.52 294.605 84.89 291.665 83.63C288.772 82.37 286.392 80.5967 284.525 78.31C282.658 76.0233 281.282 73.2933 280.395 70.12C279.508 66.9467 279.065 63.4467 279.065 59.62C279.065 57.5667 279.205 55.56 279.485 53.6C279.812 51.5933 280.185 49.61 280.605 47.65C281.025 45.69 281.445 43.73 281.865 41.77C282.285 39.7633 282.612 37.7567 282.845 35.75H284.525C284.805 35.8433 284.992 36.0767 285.085 36.45C285.178 36.8233 285.225 37.1267 285.225 37.36C285.225 38.0133 285.178 38.6433 285.085 39.25C284.992 39.8567 284.898 40.4867 284.805 41.14H285.435C285.482 40.86 285.622 40.3233 285.855 39.53C286.135 38.69 286.438 37.85 286.765 37.01C287.138 36.17 287.535 35.4233 287.955 34.77C288.375 34.07 288.795 33.72 289.215 33.72C289.495 33.72 289.705 33.8833 289.845 34.21C289.985 34.5367 290.078 34.91 290.125 35.33C290.218 35.75 290.265 36.1933 290.265 36.66C290.312 37.08 290.335 37.4067 290.335 37.64C290.335 39.5533 290.195 41.4433 289.915 43.31C289.682 45.13 289.402 46.9733 289.075 48.84C288.748 50.7067 288.445 52.5733 288.165 54.44C287.932 56.3067 287.815 58.1733 287.815 60.04C287.815 62.5133 288.095 64.7767 288.655 66.83C289.215 68.8833 290.102 70.6567 291.315 72.15C292.575 73.5967 294.138 74.74 296.005 75.58C297.918 76.3733 300.205 76.77 302.865 76.77C305.712 76.77 308.092 76.07 310.005 74.67C311.965 73.27 313.528 71.4967 314.695 69.35C315.908 67.1567 316.748 64.7533 317.215 62.14C317.728 59.5267 317.985 57.03 317.985 54.65C317.985 52.69 317.892 50.7533 317.705 48.84C317.518 46.9267 317.425 44.99 317.425 43.03V42.82C317.425 42.4 317.472 41.84 317.565 41.14C317.705 40.44 318.055 40.09 318.615 40.09C318.708 40.09 318.778 40.7433 318.825 42.05C318.918 43.31 318.988 44.7567 319.035 46.39C319.082 48.0233 319.105 49.5867 319.105 51.08C319.152 52.5733 319.175 53.53 319.175 53.95V56.75C319.175 57.6367 319.128 58.5467 319.035 59.48C319.268 58.2667 319.385 57.0767 319.385 55.91C319.432 54.7433 319.455 53.5533 319.455 52.34C319.455 50.3333 319.408 48.3267 319.315 46.32L319.035 40.3H320.365C320.272 39.8333 320.225 39.1333 320.225 38.2C320.225 37.36 320.318 36.5433 320.505 35.75C320.692 34.91 321.088 34.49 321.695 34.49C321.975 34.49 322.255 34.63 322.535 34.91C322.815 35.19 323.048 35.5167 323.235 35.89C323.468 36.2633 323.655 36.66 323.795 37.08C323.982 37.4533 324.122 37.7333 324.215 37.92ZM313.575 74.32C312.922 74.6933 312.058 75.23 310.985 75.93C309.912 76.63 308.512 77.2833 306.785 77.89C307.438 77.75 308.092 77.5633 308.745 77.33C309.445 77.05 310.098 76.7467 310.705 76.42C311.312 76.0467 311.872 75.6733 312.385 75.3C312.898 74.9267 313.295 74.6 313.575 74.32ZM341.316 85.59C340.942 85.3567 340.709 84.82 340.616 83.98C340.522 83.14 340.476 82.1133 340.476 80.9V79.22H339.846C339.799 79.5 339.682 80.1533 339.496 81.18C339.356 82.2067 339.146 83.28 338.866 84.4C338.632 85.5667 338.329 86.5933 337.956 87.48C337.629 88.3667 337.256 88.81 336.836 88.81C336.462 88.81 336.159 88.32 335.926 87.34C335.692 86.36 335.529 85.2167 335.436 83.91C335.342 82.65 335.272 81.39 335.226 80.13C335.226 78.8233 335.226 77.8667 335.226 77.26C335.226 74.04 335.272 70.8667 335.366 67.74C335.459 64.5667 335.506 61.3933 335.506 58.22C335.506 55.0467 335.249 51.8967 334.736 48.77C334.222 45.5967 333.966 42.47 333.966 39.39C334.619 38.55 335.226 37.6867 335.786 36.8C336.392 35.9133 336.976 35.0033 337.536 34.07C339.216 33.65 340.966 33.2533 342.786 32.88C344.606 32.5067 346.402 32.32 348.176 32.32C353.076 32.32 357.252 33.09 360.706 34.63C364.206 36.1233 367.052 38.27 369.246 41.07C371.439 43.8233 373.049 47.1367 374.076 51.01C375.102 54.8367 375.616 59.06 375.616 63.68C375.616 71.1467 373.562 76.7 369.456 80.34C365.349 83.9333 359.609 85.73 352.236 85.73C351.956 85.73 351.512 85.6833 350.906 85.59C350.299 85.5433 349.879 85.38 349.646 85.1C350.952 84.9133 352.446 84.68 354.126 84.4C355.852 84.1667 357.579 83.8633 359.306 83.49C361.032 83.1167 362.666 82.65 364.206 82.09C365.792 81.4833 367.099 80.7367 368.126 79.85C366.726 80.7833 365.279 81.53 363.786 82.09C362.339 82.6033 360.846 83 359.306 83.28C357.812 83.56 356.272 83.77 354.686 83.91C353.099 84.05 351.512 84.2133 349.926 84.4L350.136 83.63L349.926 83.07C349.039 83.21 348.222 83.35 347.476 83.49C346.776 83.63 346.029 83.7 345.236 83.7C344.442 83.7 343.672 83.6067 342.926 83.42L342.856 85.45L341.316 85.59ZM346.286 79.64C349.506 79.64 352.492 79.5467 355.246 79.36C358.046 79.1733 360.472 78.5667 362.526 77.54C364.579 76.5133 366.189 74.95 367.356 72.85C368.569 70.7033 369.176 67.6933 369.176 63.82C369.176 61.9067 369.036 59.9 368.756 57.8C368.522 55.6533 368.056 53.5767 367.356 51.57C366.702 49.5167 365.792 47.65 364.626 45.97C363.552 44.3833 362.199 43.0767 360.566 42.05C362.152 43.1233 363.459 44.4533 364.486 46.04C365.652 47.7667 366.539 49.6333 367.146 51.64C367.799 53.6467 368.242 55.7233 368.476 57.87C368.756 59.97 368.896 61.9767 368.896 63.89C368.896 66.4567 368.662 68.6033 368.196 70.33C367.729 72.01 367.076 73.3867 366.236 74.46C365.396 75.4867 364.346 76.28 363.086 76.84C361.872 77.4 360.496 77.82 358.956 78.1C357.462 78.3333 355.806 78.52 353.986 78.66C352.166 78.7533 350.229 78.87 348.176 79.01C349.809 78.31 351.559 77.8433 353.426 77.61C355.339 77.3767 357.159 77.0733 358.886 76.7C360.659 76.3267 362.246 75.6967 363.646 74.81C365.046 73.8767 366.096 72.36 366.796 70.26L367.636 69.98C367.822 69.0467 367.939 68.23 367.986 67.53C368.032 66.7833 368.056 65.9433 368.056 65.01C368.056 62.1167 367.822 59.2233 367.356 56.33C366.889 53.39 366.026 50.7533 364.766 48.42C363.506 46.04 361.756 44.1267 359.516 42.68C357.276 41.1867 354.406 40.44 350.906 40.44C349.599 40.44 348.292 40.5333 346.986 40.72C345.726 40.86 344.466 41.07 343.206 41.35C343.299 41.3967 343.346 41.4667 343.346 41.56C343.346 41.7 343.322 41.77 343.276 41.77C345.749 41.2567 348.129 41 350.416 41C353.262 41 355.736 41.5133 357.836 42.54C359.936 43.52 361.662 44.8967 363.016 46.67C364.416 48.3967 365.442 50.4267 366.096 52.76C366.796 55.0933 367.169 57.59 367.216 60.25C366.842 57.5433 366.329 55.0467 365.676 52.76C365.022 50.4267 364.066 48.42 362.806 46.74C361.546 45.06 359.912 43.7533 357.906 42.82C355.899 41.84 353.356 41.35 350.276 41.35C349.109 41.35 347.942 41.3733 346.776 41.42C345.609 41.4667 344.466 41.6767 343.346 42.05C343.579 44.9433 343.789 47.8133 343.976 50.66C344.162 53.5067 344.256 56.3767 344.256 59.27C344.256 63.0967 344.092 66.8767 343.766 70.61C343.486 74.2967 343.229 78.03 342.996 81.81C343.462 81.3433 343.999 80.97 344.606 80.69C345.212 80.3633 345.772 80.0133 346.286 79.64ZM374.216 64.03C374.216 61.7433 374.052 59.4333 373.726 57.1C373.446 54.7667 372.979 52.5033 372.326 50.31C372.979 52.69 373.422 55.07 373.656 57.45C373.936 59.83 374.076 62.2333 374.076 64.66C374.076 65.8733 374.006 67.11 373.866 68.37C373.819 68.51 373.796 68.65 373.796 68.79C374.076 67.25 374.216 65.6633 374.216 64.03ZM367.426 64.31C367.426 65.01 367.379 65.6867 367.286 66.34C367.332 66.06 367.356 65.78 367.356 65.5V63.19C367.356 63.2367 367.356 63.2833 367.356 63.33C367.402 63.61 367.426 63.9367 367.426 64.31ZM367.356 63.19C367.356 62.91 367.332 62.6533 367.286 62.42C367.332 62.7 367.356 62.9567 367.356 63.19ZM373.096 72.01C373.189 71.73 373.259 71.45 373.306 71.17C373.259 71.45 373.189 71.73 373.096 72.01ZM383.618 78.73C384.598 76.07 385.274 73.2 385.648 70.12C386.021 66.9933 386.301 63.8667 386.488 60.74C386.488 60.2733 386.464 59.83 386.418 59.41C386.418 59.0367 386.418 58.6867 386.418 58.36C386.278 61.8133 385.998 65.2667 385.578 68.72C385.204 72.2667 384.411 75.5333 383.198 78.52C383.011 78.1467 382.871 77.82 382.778 77.54C382.684 77.26 382.638 76.9333 382.638 76.56C382.638 75.44 382.824 74.2733 383.198 73.06C383.571 71.8467 383.804 70.5867 383.898 69.28L384.878 68.86C384.878 66.5733 384.971 64.31 385.158 62.07C385.344 59.7833 385.438 57.4967 385.438 55.21C385.438 54.0433 385.391 52.9 385.298 51.78C385.251 50.66 385.111 49.4933 384.878 48.28H384.458C384.738 51.5933 384.878 54.7667 384.878 57.8C384.878 59.34 384.831 60.81 384.738 62.21C384.644 63.5167 384.481 64.8467 384.248 66.2C384.388 65.1733 384.481 64.1933 384.528 63.26C384.621 62.1867 384.668 61.0433 384.668 59.83C384.668 56.05 384.504 52.2233 384.178 48.35C383.898 44.43 383.641 40.4167 383.408 36.31V34.35C383.548 33.79 383.618 33.1833 383.618 32.53C383.664 31.8767 383.734 31.2467 383.828 30.64C383.921 30.0333 384.084 29.5433 384.318 29.17C384.598 28.75 385.041 28.54 385.648 28.54L386.838 28.89L387.258 29.73H387.888C388.074 29.45 388.284 29.31 388.518 29.31C388.798 29.31 389.078 29.4267 389.358 29.66C389.638 29.8467 389.964 29.94 390.338 29.94C391.038 29.94 391.528 30.43 391.808 31.41C392.088 32.3433 392.274 33.5333 392.368 34.98C392.461 36.38 392.508 37.9433 392.508 39.67C392.508 41.35 392.601 42.9367 392.788 44.43C392.928 45.7833 393.044 47.16 393.138 48.56C393.278 49.9133 393.348 51.29 393.348 52.69C393.348 54.09 393.301 55.7233 393.208 57.59C393.114 59.4567 392.974 61.3933 392.788 63.4C392.648 65.36 392.461 67.32 392.228 69.28C391.994 71.24 391.738 72.99 391.458 74.53C391.178 76.07 390.851 77.33 390.478 78.31C390.104 79.2433 389.731 79.71 389.358 79.71C389.264 79.71 389.124 79.6633 388.938 79.57C389.264 78.0767 389.568 76.5833 389.848 75.09C390.174 73.5967 390.454 72.0333 390.688 70.4C390.361 71.8933 390.011 73.4333 389.638 75.02C389.311 76.56 388.938 78.0067 388.518 79.36C388.331 79.1733 388.098 79.08 387.818 79.08C387.724 79.08 387.608 79.1967 387.468 79.43C387.374 79.6633 387.234 79.9433 387.048 80.27C386.861 80.55 386.628 80.8067 386.348 81.04C386.068 81.2733 385.764 81.39 385.438 81.39C385.111 81.39 384.854 81.32 384.668 81.18C384.481 81.04 384.318 80.8767 384.178 80.69C384.084 80.4567 383.968 80.2233 383.828 79.99C383.734 79.7567 383.594 79.5467 383.408 79.36L383.618 78.73ZM391.738 58.57C391.458 59.5033 391.248 60.3667 391.108 61.16C391.014 61.9067 390.944 62.63 390.898 63.33C390.898 64.03 390.898 64.7533 390.898 65.5C390.898 66.1533 390.874 66.8767 390.828 67.67C391.014 66.0833 391.178 64.6367 391.318 63.33C391.504 61.93 391.644 60.3433 391.738 58.57ZM384.248 66.48C384.248 66.3867 384.248 66.2933 384.248 66.2C384.248 66.2933 384.248 66.3867 384.248 66.48ZM417.388 87.34C419.441 87.9933 421.541 88.32 423.688 88.32C426.115 88.32 428.378 87.9467 430.478 87.2C432.578 86.4533 434.491 85.4267 436.218 84.12C437.945 82.8133 439.461 81.2967 440.768 79.57C441.701 78.3567 442.518 77.05 443.218 75.65C442.611 76.9567 441.911 78.24 441.118 79.5C439.998 81.2733 438.598 82.8367 436.918 84.19C435.285 85.5433 433.395 86.6167 431.248 87.41C429.101 88.25 426.675 88.67 423.968 88.67H423.058C419.185 88.67 415.825 87.8067 412.978 86.08C410.131 84.3533 407.775 82.16 405.908 79.5C404.041 76.7933 402.641 73.7833 401.708 70.47C400.821 67.1567 400.378 63.89 400.378 60.67C400.378 59.3167 400.448 57.8933 400.588 56.4C400.728 54.86 401.031 53.32 401.498 51.78C401.965 50.24 402.618 48.7467 403.458 47.3C404.345 45.8067 405.535 44.4533 407.028 43.24C408.241 42.26 409.548 41.4433 410.948 40.79C412.395 40.09 413.818 39.6933 415.218 39.6C415.078 39.6933 415.008 39.7867 415.008 39.88C415.008 40.0667 415.101 40.2767 415.288 40.51C415.521 40.6967 415.638 40.9067 415.638 41.14V41.28C415.638 41.4667 415.521 41.6067 415.288 41.7C415.101 41.7933 414.775 41.9333 414.308 42.12C413.841 42.26 413.235 42.4933 412.488 42.82C411.741 43.1467 410.855 43.6367 409.828 44.29C410.108 44.57 410.248 44.78 410.248 44.92C411.135 44.4533 411.951 44.1267 412.698 43.94C413.445 43.7533 414.145 43.66 414.798 43.66C416.151 43.66 417.131 43.8933 417.738 44.36C418.345 44.8267 418.648 45.1767 418.648 45.41C418.648 45.7833 418.345 46.0867 417.738 46.32C417.178 46.5533 416.501 46.8567 415.708 47.23C414.961 47.5567 414.168 48.0233 413.328 48.63C412.488 49.19 411.835 50.03 411.368 51.15C410.621 52.27 410.038 53.67 409.618 55.35C409.245 57.03 409.058 58.7333 409.058 60.46C409.058 63.4 409.408 66.0833 410.108 68.51C410.808 70.9367 411.788 73.0367 413.048 74.81C414.355 76.5833 415.918 77.96 417.738 78.94C419.605 79.92 421.705 80.41 424.038 80.41C426.278 80.41 428.285 79.85 430.058 78.73C431.878 77.61 433.418 76.0933 434.678 74.18C435.938 72.22 436.895 69.98 437.548 67.46C438.201 64.8933 438.528 62.1633 438.528 59.27C438.528 57.87 438.435 56.4933 438.248 55.14C438.108 53.74 437.781 52.41 437.268 51.15C436.801 49.89 436.125 48.7 435.238 47.58C434.398 46.46 433.278 45.4333 431.878 44.5C430.105 43.5667 428.658 42.9133 427.538 42.54C426.418 42.12 425.858 41.7233 425.858 41.35C425.858 41.21 425.951 41.0467 426.138 40.86C428.471 41.3733 430.571 42.2133 432.438 43.38C434.165 44.4533 435.611 45.8533 436.778 47.58C435.518 45.6667 434.095 44.1967 432.508 43.17C430.781 42.0033 428.728 41.0933 426.348 40.44C426.581 40.2067 426.698 39.9967 426.698 39.81C426.698 39.6233 426.348 39.46 425.648 39.32C424.995 39.18 424.271 39.0167 423.478 38.83C422.685 38.6433 421.938 38.41 421.238 38.13C420.585 37.85 420.258 37.5 420.258 37.08C420.258 36.5667 420.678 36.1933 421.518 35.96C422.358 35.7267 423.385 35.4467 424.598 35.12C424.925 35.12 425.228 35.1667 425.508 35.26C425.835 35.3533 426.115 35.4467 426.348 35.54C428.635 35.96 430.805 36.7067 432.858 37.78C434.958 38.8533 436.825 40.23 438.458 41.91C440.138 43.59 441.538 45.5967 442.658 47.93C443.778 50.2167 444.501 52.8067 444.828 55.7C444.595 52.9467 443.965 50.45 442.938 48.21C441.958 45.9233 440.651 43.8933 439.018 42.12C437.431 40.3467 435.565 38.8533 433.418 37.64C431.271 36.4267 428.985 35.4933 426.558 34.84C428.705 34.84 430.828 35.2833 432.928 36.17C435.075 37.01 437.035 38.27 438.808 39.95C440.581 41.5833 442.121 43.6133 443.428 46.04C444.735 48.4667 445.668 51.2433 446.228 54.37C446.135 54.37 445.995 54.4167 445.808 54.51C445.621 54.5567 445.481 54.58 445.388 54.58C445.808 56.96 446.018 59.27 446.018 61.51C446.018 64.7767 445.505 67.9733 444.478 71.1C443.498 74.2267 442.051 77.0267 440.138 79.5C438.271 81.9267 435.961 83.8867 433.208 85.38C430.455 86.92 427.305 87.69 423.758 87.69C421.658 87.69 419.605 87.3867 417.598 86.78C415.591 86.1733 413.725 85.3567 411.998 84.33C412.091 84.4233 412.138 84.5167 412.138 84.61C412.138 84.7033 412.021 84.75 411.788 84.75C413.515 85.87 415.381 86.7333 417.388 87.34ZM444.968 62.28C444.735 64.1 444.385 65.99 443.918 67.95C443.498 69.8633 442.891 71.7533 442.098 73.62C441.351 75.4867 440.395 77.2367 439.228 78.87C438.061 80.4567 436.685 81.8333 435.098 83C436.685 81.88 438.085 80.55 439.298 79.01C440.511 77.4233 441.515 75.6967 442.308 73.83C443.148 71.9633 443.778 70.0033 444.198 67.95C444.665 65.85 444.945 63.7733 445.038 61.72C444.991 61.86 444.968 62.0467 444.968 62.28ZM439.368 66.34C438.995 68.1133 438.435 69.84 437.688 71.52C436.941 73.1533 435.985 74.6233 434.818 75.93C436.031 74.67 437.011 73.2233 437.758 71.59C438.505 69.9567 439.041 68.2067 439.368 66.34ZM446.578 60.18C446.578 60.9733 446.531 61.79 446.438 62.63C446.391 63.4233 446.321 64.24 446.228 65.08C446.228 64.2867 446.275 63.4 446.368 62.42C446.461 61.3933 446.508 60.2733 446.508 59.06V57.8C446.555 58.1733 446.578 58.57 446.578 58.99V60.18ZM439.368 66.34C439.601 65.3133 439.765 64.2867 439.858 63.26C439.998 62.1867 440.068 61.1133 440.068 60.04C440.068 58.8733 439.998 57.6833 439.858 56.47C439.905 56.9833 439.928 57.4733 439.928 57.94C439.975 58.4067 439.998 58.8967 439.998 59.41C439.998 61.79 439.788 64.1 439.368 66.34ZM446.228 65.5L445.598 68.93C445.365 69.77 445.131 70.61 444.898 71.45C444.665 72.2433 444.385 73.0367 444.058 73.83C444.571 72.3833 444.991 70.9367 445.318 69.49C445.691 68.0433 445.995 66.62 446.228 65.22V65.5ZM411.858 84.89C411.858 84.8433 411.835 84.7967 411.788 84.75C411.788 84.7967 411.811 84.8433 411.858 84.89ZM444.058 73.83C443.965 74.0167 443.895 74.18 443.848 74.32C443.895 74.18 443.965 74.0167 444.058 73.83ZM443.288 75.51C443.381 75.37 443.451 75.23 443.498 75.09C443.451 75.23 443.381 75.37 443.288 75.51ZM437.198 48.14C437.151 48.0467 437.081 47.9533 436.988 47.86C437.035 47.9533 437.105 48.0467 437.198 48.14ZM443.848 74.32C443.755 74.5533 443.661 74.7867 443.568 75.02C443.661 74.7867 443.755 74.5533 443.848 74.32Z" fill="black"/>
<path d="M45.92 65.59L45.5 65.38C43.54 64.8667 41.4633 64.54 39.27 64.4C37.0767 64.26 34.8367 63.9567 32.55 63.49C34.79 63.9567 36.9833 64.33 39.13 64.61C41.2767 64.8433 43.4 65.31 45.5 66.01C44.8467 66.43 44.1467 66.64 43.4 66.64C42.5133 66.5467 41.6267 66.4067 40.74 66.22C39.9 66.0333 38.99 65.8933 38.01 65.8C38.01 65.52 38.08 65.31 38.22 65.17C36.8667 65.17 35.5133 65.03 34.16 64.75C32.8533 64.47 31.57 64.1667 30.31 63.84C29.05 63.4667 27.8133 63.14 26.6 62.86C25.4333 62.5333 24.3367 62.37 23.31 62.37C23.31 62.51 23.2867 62.58 23.24 62.58C24.4533 62.8133 25.5967 63.14 26.67 63.56C27.7433 63.98 28.9567 64.3067 30.31 64.54C31.6167 64.8667 32.8767 65.1 34.09 65.24C35.35 65.38 36.5867 65.5667 37.8 65.8C35.84 65.6133 33.8333 65.3333 31.78 64.96C29.7733 64.5867 27.79 64.1667 25.83 63.7L22.54 62.86C21.3733 65.8467 20.1833 68.7867 18.97 71.68C17.8033 74.5267 16.66 77.42 15.54 80.36C15.4467 80.1733 15.2833 80.0567 15.05 80.01C14.8633 80.01 14.6533 80.01 14.42 80.01C14.2333 80.01 14.0467 79.94 13.86 79.8C13.6733 79.7067 13.58 79.4733 13.58 79.1C13.58 78.7267 13.6733 78.19 13.86 77.49C14.0467 76.8367 14.3967 75.95 14.91 74.83C14.8167 74.7367 14.6533 74.69 14.42 74.69C14.2333 74.6433 14.0933 74.62 14 74.62C13.0667 76.58 12.1567 78.0733 11.27 79.1C10.43 80.1733 9.75333 80.71 9.24 80.71C8.68 80.71 8.4 80.1733 8.4 79.1C8.4 78.2133 8.56333 77.0933 8.89 75.74C9.21667 74.34 9.61333 72.8467 10.08 71.26C10.5933 69.6733 11.1533 68.04 11.76 66.36C12.3667 64.6333 12.95 62.9533 13.51 61.32C12.9967 60.9933 12.4367 60.76 11.83 60.62C11.27 60.48 10.64 60.3633 9.94 60.27C10.08 60.0833 10.15 59.85 10.15 59.57C10.15 59.29 10.1733 59.01 10.22 58.73C10.2667 58.45 10.36 58.2167 10.5 58.03C10.64 57.8433 10.8967 57.75 11.27 57.75C11.3633 57.75 11.6433 57.7967 12.11 57.89V57.26C11.3633 56.8867 10.78 56.4433 10.36 55.93C9.98667 55.4167 9.8 54.9033 9.8 54.39C9.8 53.27 10.8733 52.71 13.02 52.71C13.6267 52.71 14.2333 52.7567 14.84 52.85C15.4933 52.8967 16.1467 52.9667 16.8 53.06L20.02 45.71C20.72 44.1233 21.4667 42.49 22.26 40.81C23.1 39.13 24.08 37.4733 25.2 35.84C26.32 34.2067 27.58 32.6667 28.98 31.22C30.4267 29.7267 32.0833 28.3967 33.95 27.23L35 26.81C36.3067 27.1367 37.3567 27.4167 38.15 27.65C38.99 27.8367 39.6667 27.9767 40.18 28.07C40.6467 28.2567 41.02 28.3733 41.3 28.42H41.23L41.3 28.63C41.3 28.6767 41.2767 28.7233 41.23 28.77L42.07 30.24C45.1033 35.3267 47.67 40.6 49.77 46.06C51.87 51.52 53.6667 56.8867 55.16 62.16C55.5333 63.3267 55.9767 64.5867 56.49 65.94C57.05 67.2467 57.5633 68.5067 58.03 69.72C58.5433 70.8867 58.9633 71.96 59.29 72.94C59.6167 73.8733 59.78 74.55 59.78 74.97C59.78 75.2967 59.71 75.5067 59.57 75.6C59.43 75.6467 59.2433 75.67 59.01 75.67C57.7967 72.6367 56.6533 69.65 55.58 66.71C54.5067 63.8167 53.4567 60.9 52.43 57.96C53.3633 60.9 54.3433 63.8167 55.37 66.71C56.4433 69.65 57.5167 72.6367 58.59 75.67H58.1C57.82 75.67 57.6333 75.81 57.54 76.09C57.6333 76.1833 57.75 76.44 57.89 76.86C58.03 77.2333 58.17 77.63 58.31 78.05C58.45 78.5167 58.5667 78.9833 58.66 79.45C58.7533 79.9167 58.8 80.2667 58.8 80.5C58.8 81.5267 58.4967 82.04 57.89 82.04C57.5633 82.04 57.3067 81.97 57.12 81.83C56.9333 81.69 56.7233 81.5033 56.49 81.27L55.79 80.57C55.51 80.29 55.16 80.01 54.74 79.73L48.02 60.41C49 63.4433 49.9567 66.4767 50.89 69.51C51.87 72.5433 52.8733 75.53 53.9 78.47C53.1533 77.5833 52.4533 76.51 51.8 75.25C51.1933 73.99 50.61 72.66 50.05 71.26C49.5367 69.86 49.0467 68.4367 48.58 66.99C48.1133 65.4967 47.6467 64.0967 47.18 62.79C47.18 62.8833 47.18 62.9767 47.18 63.07C47.2267 63.1167 47.25 63.1867 47.25 63.28C47.25 64.0267 47.0167 64.5867 46.55 64.96L45.92 65.59ZM45.5 58.31C45.5933 58.31 45.7333 58.2867 45.92 58.24C46.1067 58.1467 46.2467 58.1 46.34 58.1C44.8 54.2267 43.26 50.47 41.72 46.83C40.2267 43.19 38.57 39.69 36.75 36.33L36.33 36.75L37.38 38.64C39.0133 41.6267 40.4833 44.7067 41.79 47.88C43.0967 51.0533 44.3333 54.32 45.5 57.68C44.1467 54.04 42.6767 50.4233 41.09 46.83C39.55 43.19 37.8933 39.9 36.12 36.96L35.84 37.1C34.2533 38.7333 32.76 40.6933 31.36 42.98C30.0067 45.2667 28.7233 47.6 27.51 49.98L25.69 54.39L26.88 54.67C27.58 54.8567 28.2567 55.0667 28.91 55.3C29.61 55.4867 30.2167 55.6967 30.73 55.93C31.7567 56.4433 33.11 56.84 34.79 57.12C36.47 57.4 38.1033 57.68 39.69 57.96C41.3233 58.1933 42.7233 58.4733 43.89 58.8C45.1033 59.08 45.71 59.5 45.71 60.06L37.17 59.08C37.6833 59.1733 38.3133 59.29 39.06 59.43C39.8067 59.5233 40.5533 59.64 41.3 59.78C42.0933 59.92 42.8633 60.06 43.61 60.2C44.3567 60.2933 44.9867 60.3867 45.5 60.48C45.5 60.62 45.4767 60.76 45.43 60.9C45.43 60.9933 45.43 61.0867 45.43 61.18C45.43 61.2733 45.4767 61.3433 45.57 61.39C45.71 61.39 45.85 61.4133 45.99 61.46C46.1767 61.46 46.34 61.5067 46.48 61.6C46.62 61.6467 46.76 61.7867 46.9 62.02L45.5 58.31ZM30.31 43.33C30.4033 43.33 30.4267 43.4 30.38 43.54C30.38 43.6333 30.4033 43.68 30.45 43.68C30.5433 43.68 30.8233 43.3533 31.29 42.7C31.7567 42.0467 32.2933 41.3 32.9 40.46C33.5067 39.62 34.09 38.8267 34.65 38.08C35.21 37.3333 35.6067 36.8433 35.84 36.61L35.49 36.12C34.51 37.0533 33.6 38.15 32.76 39.41C31.92 40.67 31.1033 41.9767 30.31 43.33ZM37.38 35.77C38.8733 38.29 40.25 40.9267 41.51 43.68C42.7233 46.3867 43.8667 49.0933 44.94 51.8C44.0533 49.0933 42.98 46.3867 41.72 43.68C40.4133 40.9267 38.99 38.29 37.45 35.77H37.38ZM48.09 46.27C49.5367 50.0033 50.96 53.8067 52.36 57.68C51.0533 53.9 49.6767 50.1667 48.23 46.48C46.8767 42.84 45.3133 39.1767 43.54 35.49C45.22 39.0367 46.7367 42.63 48.09 46.27ZM37.8 34.23C38.4067 34.37 38.8267 34.51 39.06 34.65C39.2933 34.79 39.4567 34.86 39.55 34.86L39.62 34.65C39.6667 34.65 39.5733 34.6267 39.34 34.58C39.1067 34.5333 38.92 34.4867 38.78 34.44L38.92 34.16L38.08 33.88L37.8 34.23ZM34.37 33.53L34.93 35L34.86 33.53C34.7667 33.53 34.65 33.5067 34.51 33.46C34.4167 33.4133 34.3233 33.39 34.23 33.39L34.37 33.53ZM36.19 35.56L35.7 35.91L36.12 36.47L36.54 36.05L36.19 35.56ZM37.17 35.42H37.24L36.89 34.93V35L37.17 35.42ZM106.499 74.83C106.126 74.13 105.472 73.43 104.539 72.73C103.606 71.9833 102.486 71.26 101.179 70.56C99.8723 69.86 98.4723 69.1833 96.979 68.53C95.4857 67.8767 94.0157 67.2467 92.569 66.64C91.1223 65.9867 89.769 65.38 88.509 64.82C87.6223 64.4467 86.8523 64.0733 86.199 63.7C87.5523 64.4933 88.9757 65.2167 90.469 65.87C92.1957 66.6633 93.9223 67.48 95.649 68.32C97.4223 69.16 99.1257 70.0467 100.759 70.98C102.392 71.9133 103.886 72.9867 105.239 74.2C103.886 73.8267 102.182 73.22 100.129 72.38C98.0757 71.4933 95.9757 70.5367 93.829 69.51C91.729 68.4367 89.6757 67.3633 87.669 66.29C85.709 65.2167 84.1223 64.2833 82.909 63.49L83.399 62.86C82.0923 61.9733 80.7623 60.9467 79.409 59.78C78.0557 58.6133 77.0057 57.33 76.259 55.93C75.7457 58.1233 75.4423 60.2233 75.349 62.23C75.2557 64.2367 75.209 66.15 75.209 67.97C75.209 68.6233 75.3723 69.2533 75.699 69.86C76.0257 70.42 76.189 70.9567 76.189 71.47C76.189 72.17 75.8623 72.59 75.209 72.73C74.8357 71.8433 74.5557 70.9567 74.369 70.07C74.1823 69.1833 74.0423 68.2967 73.949 67.41C73.949 68.3433 73.9957 69.2533 74.089 70.14C74.229 71.0733 74.4623 72.0067 74.789 72.94L73.739 73.36L74.369 74.2C74.2757 74.7133 74.0657 75.2033 73.739 75.67C73.459 76.09 73.0157 76.3 72.409 76.3C71.6623 76.3 71.0557 75.9033 70.589 75.11C70.169 74.27 69.819 73.29 69.539 72.17C69.3057 71.0033 69.1423 69.8367 69.049 68.67C69.0023 67.4567 68.979 66.4533 68.979 65.66C68.979 64.0733 68.979 62.51 68.979 60.97C69.0257 59.43 69.0957 57.8667 69.189 56.28C68.9557 57.7733 68.8157 59.29 68.769 60.83C68.769 62.37 68.769 63.91 68.769 65.45C68.769 67.0833 68.8623 68.7633 69.049 70.49C69.2357 72.2167 69.5157 73.8733 69.889 75.46C69.2823 74.9 68.8157 74.27 68.489 73.57C68.209 72.87 67.9757 72.1467 67.789 71.4C67.649 70.6067 67.5323 69.8133 67.439 69.02C67.3923 68.2267 67.3457 67.4567 67.299 66.71L68.139 66.5C67.9523 65.8 67.8357 65.1 67.789 64.4C67.7423 63.6533 67.719 62.9067 67.719 62.16C67.719 60.5267 67.8357 58.94 68.069 57.4C68.3023 55.8133 68.419 54.2033 68.419 52.57V51.73L68.349 49.98H67.929C67.8357 52.22 67.6957 54.46 67.509 56.7C67.369 58.94 67.2757 61.2033 67.229 63.49C67.1823 63.0233 67.159 62.58 67.159 62.16V60.83C67.159 57.4233 67.3223 54.0867 67.649 50.82C68.0223 47.5067 68.3957 44.17 68.769 40.81C68.8623 39.7367 69.1423 38.7567 69.609 37.87C70.0757 36.9367 70.449 35.98 70.729 35C70.9157 35.14 71.149 35.2333 71.429 35.28C71.709 35.28 71.9657 35.3033 72.199 35.35C72.4323 35.35 72.6423 35.42 72.829 35.56C73.0157 35.7 73.109 35.9333 73.109 36.26C73.109 36.4467 73.0857 36.6333 73.039 36.82L72.899 37.38L73.529 37.59C73.8557 37.0767 74.2757 36.5867 74.789 36.12C75.3023 35.6533 75.8857 35.42 76.539 35.42C77.0523 35.42 77.4257 35.63 77.659 36.05C77.8923 36.47 78.009 36.9133 78.009 37.38C78.009 37.66 77.9623 38.2433 77.869 39.13C77.8223 40.0167 77.729 41.0433 77.589 42.21C77.4957 43.3767 77.379 44.6367 77.239 45.99C77.099 47.2967 76.959 48.5333 76.819 49.7C76.7257 50.8667 76.6323 51.87 76.539 52.71C76.4457 53.5033 76.399 53.9933 76.399 54.18L78.079 50.4C77.939 50.82 77.799 51.17 77.659 51.45C77.5657 51.73 77.4723 52.01 77.379 52.29C77.2857 52.57 77.1457 52.8733 76.959 53.2C76.819 53.5267 76.609 53.9467 76.329 54.46V55.44L78.639 50.19C79.3857 50.19 80.109 50.19 80.809 50.19C81.5557 50.1433 82.3023 50.05 83.049 49.91L83.749 49.77C82.7223 49.77 81.9057 49.77 81.299 49.77C80.739 49.7233 80.2023 49.6533 79.689 49.56C81.5557 49.56 83.399 49.5367 85.219 49.49C87.0857 49.3967 88.9757 49.35 90.889 49.35C92.569 49.35 94.2257 49.3033 95.859 49.21C97.539 49.1167 99.0323 48.79 100.339 48.23C101.692 47.67 102.789 46.8067 103.629 45.64C104.469 44.4733 104.889 42.8167 104.889 40.67C104.889 38.4767 104.609 36.7033 104.049 35.35C103.489 33.9967 102.672 32.9467 101.599 32.2C100.572 31.4067 99.2657 30.8933 97.679 30.66C96.0923 30.38 94.2957 30.24 92.289 30.24C88.1823 30.24 84.0523 30.4267 79.899 30.8C75.7457 31.1733 71.6857 31.8733 67.719 32.9C67.6257 32.5267 67.5557 32.2 67.509 31.92C67.4623 31.5933 67.3457 31.3133 67.159 31.08C67.159 30.8 67.4157 30.5433 67.929 30.31C68.4423 30.0767 69.0257 29.89 69.679 29.75C70.3323 29.61 70.939 29.4933 71.499 29.4C72.1057 29.3067 72.5023 29.2367 72.689 29.19V28.35C72.3623 28.3967 71.8023 28.4433 71.009 28.49C70.2157 28.5367 69.3523 28.56 68.419 28.56C67.159 28.56 65.9923 28.49 64.919 28.35C63.8457 28.1633 63.309 27.8133 63.309 27.3C63.309 26.74 63.9157 26.2033 65.129 25.69C66.389 25.1767 67.9757 24.71 69.889 24.29C71.8023 23.8233 73.9023 23.4267 76.189 23.1C78.4757 22.7733 80.669 22.4933 82.769 22.26C84.9157 21.98 86.8057 21.7933 88.439 21.7C90.119 21.56 91.2857 21.49 91.939 21.49C95.299 21.49 98.3323 21.84 101.039 22.54C103.746 23.1933 106.032 24.29 107.899 25.83C109.812 27.37 111.259 29.4 112.239 31.92C113.266 34.3933 113.779 37.45 113.779 41.09C113.779 44.1233 113.196 46.7133 112.029 48.86C110.909 50.96 109.392 52.6867 107.479 54.04C105.566 55.3467 103.372 56.3267 100.899 56.98C98.4257 57.5867 95.859 57.89 93.199 57.89C92.4523 57.89 91.7057 57.8667 90.959 57.82C90.259 57.7733 89.5357 57.7267 88.789 57.68C89.3023 58.0067 90.1423 58.45 91.309 59.01C92.5223 59.57 93.8523 60.2 95.299 60.9C96.7923 61.6 98.3323 62.3467 99.919 63.14C101.552 63.8867 103.022 64.6333 104.329 65.38C105.636 66.08 106.709 66.7567 107.549 67.41C108.389 68.0167 108.809 68.5067 108.809 68.88L108.459 69.3C106.919 68.18 105.332 67.2 103.699 66.36C102.066 65.52 100.386 64.7267 98.659 63.98C96.979 63.2333 95.2757 62.51 93.549 61.81C91.9157 61.11 90.2823 60.2933 88.649 59.36C90.2357 60.2933 91.8223 61.11 93.409 61.81L98.379 64.05C100.059 64.7967 101.692 65.59 103.279 66.43C104.912 67.2233 106.476 68.18 107.969 69.3L107.059 70.14C107.386 70.3733 107.759 70.7 108.179 71.12C108.646 71.4933 109.066 71.9133 109.439 72.38C109.859 72.8467 110.209 73.3367 110.489 73.85C110.769 74.3167 110.909 74.76 110.909 75.18C110.909 75.7867 110.629 76.09 110.069 76.09C109.509 76.09 108.902 75.9267 108.249 75.6C107.596 75.2733 107.012 75.0167 106.499 74.83ZM91.239 49.77C90.3057 49.77 89.3257 49.7933 88.299 49.84C87.319 49.84 86.3157 49.84 85.289 49.84C86.4557 49.8867 87.669 49.9567 88.929 50.05C90.189 50.0967 91.4723 50.12 92.779 50.12C94.4123 50.12 95.999 50.0267 97.539 49.84C99.1257 49.6067 100.526 49.1633 101.739 48.51C102.952 47.81 103.909 46.8767 104.609 45.71C105.356 44.4967 105.729 42.91 105.729 40.95C105.729 40.2967 105.682 39.6667 105.589 39.06C105.496 38.4533 105.379 37.8233 105.239 37.17H104.819C105.099 38.29 105.239 39.4333 105.239 40.6C105.239 42.7 104.866 44.3567 104.119 45.57C103.372 46.7833 102.369 47.7167 101.109 48.37C99.849 48.9767 98.3557 49.3733 96.629 49.56C94.949 49.7 93.1523 49.77 91.239 49.77ZM78.849 51.31C80.7157 51.4033 82.6057 51.4733 84.519 51.52C86.479 51.52 88.4857 51.52 90.539 51.52C91.7523 51.52 92.9657 51.4967 94.179 51.45C95.3923 51.3567 96.559 51.1933 97.679 50.96C97.1657 51.0533 96.6523 51.1 96.139 51.1H94.669C94.109 51.1 93.4323 51.1 92.639 51.1C91.8457 51.0533 90.9823 51.0067 90.049 50.96C89.1157 50.9133 88.1357 50.89 87.109 50.89C86.0823 50.8433 85.079 50.82 84.099 50.82C83.0257 50.82 82.0457 50.8433 81.159 50.89C80.2723 50.9367 79.5023 51.0767 78.849 51.31ZM76.189 56.7C77.1223 57.9133 78.0557 59.0567 78.989 60.13C79.969 61.1567 81.0657 62.1367 82.279 63.07C81.159 62.2767 80.0157 61.32 78.849 60.2C77.729 59.08 76.8423 57.9133 76.189 56.7ZM86.549 56.14C87.4823 56.2333 88.4157 56.3033 89.349 56.35C90.2357 56.3967 91.0757 56.4433 91.869 56.49C91.2157 56.4433 90.5623 56.3733 89.909 56.28C89.1623 56.14 88.4157 56.07 87.669 56.07H87.109C86.9223 56.07 86.7357 56.0933 86.549 56.14ZM78.639 51.31C78.5923 51.45 78.4523 51.73 78.219 52.15C78.0323 52.57 77.8223 53.0367 77.589 53.55C77.4023 54.0167 77.2157 54.46 77.029 54.88C76.8423 55.3 76.749 55.58 76.749 55.72L76.889 55.58L78.639 51.52V51.31ZM85.919 57.47H85.709C86.3623 57.9833 87.109 58.4733 87.949 58.94L85.919 57.47ZM77.309 56.28C77.4023 56.5133 77.5423 56.7933 77.729 57.12C77.9623 57.4 78.2423 57.7033 78.569 58.03C78.289 57.7033 78.0557 57.3767 77.869 57.05C77.6823 56.6767 77.5423 56.3267 77.449 56L77.309 56.28ZM85.569 63.35C85.709 63.4433 85.8257 63.5133 85.919 63.56L85.569 63.35ZM161.919 32.76C158.326 32.76 154.756 32.8767 151.209 33.11C147.663 33.2967 144.116 33.39 140.569 33.39C141.176 33.4367 141.759 33.4833 142.319 33.53C142.926 33.53 143.556 33.53 144.209 33.53C146.356 33.53 148.479 33.5067 150.579 33.46C152.726 33.3667 154.873 33.32 157.019 33.32H159.119C159.819 33.32 160.543 33.3433 161.289 33.39C160.636 33.81 159.936 34.1133 159.189 34.3C158.489 34.4867 157.766 34.6267 157.019 34.72C156.319 34.7667 155.573 34.79 154.779 34.79C154.033 34.79 153.286 34.8133 152.539 34.86L151.909 34.02C150.836 34.2067 149.763 34.3233 148.689 34.37C147.616 34.4167 146.543 34.44 145.469 34.44L139.239 34.37L139.309 35L150.999 34.93C147.033 35.1633 143.136 35.3033 139.309 35.35C139.356 35.9567 139.403 36.5633 139.449 37.17C139.496 37.73 139.566 38.3133 139.659 38.92L138.819 39.13C139.193 40.7167 139.449 42.4667 139.589 44.38C139.776 46.2467 139.939 48.16 140.079 50.12C140.219 52.08 140.406 54.0167 140.639 55.93C140.919 57.7967 141.316 59.5 141.829 61.04L142.039 60.83C141.759 59.2433 141.503 57.54 141.269 55.72C141.036 53.8533 140.803 51.9633 140.569 50.05C140.383 48.09 140.196 46.1767 140.009 44.31C139.869 42.5367 139.753 40.88 139.659 39.34C139.846 41.8133 140.126 44.4033 140.499 47.11C140.919 49.8633 141.363 52.6633 141.829 55.51C142.296 58.31 142.739 61.0867 143.159 63.84C143.626 66.5933 144.046 69.23 144.419 71.75C144.513 72.5433 144.629 73.4067 144.769 74.34C144.909 75.2267 144.979 76.1367 144.979 77.07V77.91C144.979 78.2367 144.933 78.54 144.839 78.82C144.513 78.82 144.186 78.8667 143.859 78.96C143.579 79.1 143.276 79.17 142.949 79.17C142.436 79.17 142.109 78.9133 141.969 78.4C141.876 77.8867 141.829 77.4433 141.829 77.07H141.199C141.153 77.35 141.059 77.7 140.919 78.12C140.826 78.5867 140.663 79.03 140.429 79.45C140.243 79.87 139.986 80.22 139.659 80.5C139.379 80.78 139.053 80.92 138.679 80.92C138.213 80.92 137.793 80.5933 137.419 79.94C137.046 79.2867 136.696 78.4467 136.369 77.42C136.089 76.3933 135.833 75.2733 135.599 74.06C135.413 72.8 135.226 71.61 135.039 70.49C134.899 69.3233 134.759 68.2733 134.619 67.34C134.526 66.4067 134.433 65.73 134.339 65.31C133.873 63.35 133.429 61.2033 133.009 58.87C132.636 56.5367 132.309 54.18 132.029 51.8C131.749 49.42 131.516 47.0633 131.329 44.73C131.189 42.35 131.119 40.1333 131.119 38.08C131.119 37.7533 131.119 37.45 131.119 37.17C131.166 36.8433 131.189 36.5167 131.189 36.19V35.77C131.189 35.5833 131.166 35.3967 131.119 35.21C128.366 35.1633 125.753 35.0467 123.279 34.86C120.806 34.6267 118.053 34.3233 115.019 33.95C115.066 33.67 115.089 33.3667 115.089 33.04C115.089 32.7133 115.113 32.41 115.159 32.13C115.253 31.85 115.369 31.6167 115.509 31.43C115.696 31.1967 115.999 31.08 116.419 31.08C116.699 31.08 117.026 31.1267 117.399 31.22L117.609 30.59C117.049 30.3567 116.396 29.9833 115.649 29.47C114.903 28.9567 114.529 28.35 114.529 27.65C114.529 27.23 114.693 26.9267 115.019 26.74C115.346 26.5067 115.743 26.3433 116.209 26.25C116.676 26.1567 117.143 26.11 117.609 26.11C118.076 26.0633 118.426 26.04 118.659 26.04C120.339 26.04 121.996 26.1333 123.629 26.32C125.309 26.5067 126.989 26.6 128.669 26.6C132.916 26.6 137.139 26.67 141.339 26.81C145.539 26.9033 149.763 26.95 154.009 26.95C154.849 26.95 155.666 26.8333 156.459 26.6C157.299 26.3667 158.139 26.25 158.979 26.25C159.306 26.25 159.586 26.3433 159.819 26.53C160.099 26.7167 160.239 26.9967 160.239 27.37C158.979 27.6033 157.696 27.79 156.389 27.93C155.223 28.0233 154.033 28.1167 152.819 28.21C154.033 28.21 155.223 28.1633 156.389 28.07C157.649 27.9767 158.933 27.8833 160.239 27.79V29.12L161.499 28.91C161.873 29.0033 162.223 29.19 162.549 29.47C162.876 29.7033 163.039 30.0533 163.039 30.52C163.039 30.94 162.923 31.36 162.689 31.78C162.456 32.1533 162.199 32.48 161.919 32.76ZM137.349 35.35C137.443 36.7033 137.559 38.1967 137.699 39.83C137.886 41.4633 138.073 43.12 138.259 44.8C138.446 46.48 138.633 48.1367 138.819 49.77C139.053 51.3567 139.263 52.8267 139.449 54.18C139.309 52.8733 139.146 51.4033 138.959 49.77C138.819 48.1367 138.679 46.48 138.539 44.8C138.399 43.12 138.259 41.4633 138.119 39.83C138.026 38.1967 137.979 36.7033 137.979 35.35H137.349ZM150.089 28.21H146.239C145.073 28.21 143.906 28.1867 142.739 28.14C143.299 28.2333 143.836 28.3267 144.349 28.42C145.003 28.56 145.726 28.63 146.519 28.63C147.079 28.63 147.663 28.5833 148.269 28.49C148.923 28.3967 149.529 28.3033 150.089 28.21ZM137.629 35H137.979V34.37H137.629V35ZM186.802 72.31C186.802 72.03 186.965 71.7733 187.292 71.54C187.618 71.3067 187.992 71.0967 188.412 70.91C188.878 70.7233 189.322 70.56 189.742 70.42C190.208 70.28 190.558 70.1633 190.792 70.07C193.032 70.35 195.272 70.5833 197.512 70.77C199.752 70.9567 201.992 71.05 204.232 71.05C205.072 71.05 206.238 71.05 207.732 71.05C209.225 71.0033 210.858 70.91 212.632 70.77C214.405 70.63 216.202 70.42 218.022 70.14C219.842 69.8133 221.498 69.37 222.992 68.81C224.485 68.25 225.698 67.55 226.632 66.71C227.565 65.87 228.032 64.82 228.032 63.56C228.032 62.5333 227.798 61.6233 227.332 60.83C226.912 59.99 226.328 59.2667 225.582 58.66C224.882 58.0067 224.088 57.47 223.202 57.05C222.875 56.8633 222.525 56.7 222.152 56.56C222.525 56.7467 222.875 56.9333 223.202 57.12C224.042 57.5867 224.788 58.17 225.442 58.87C226.142 59.5233 226.702 60.27 227.122 61.11C227.542 61.9033 227.752 62.8133 227.752 63.84C227.752 64.96 227.332 65.9167 226.492 66.71C225.698 67.4567 224.648 68.0867 223.342 68.6C222.082 69.1133 220.658 69.51 219.072 69.79C217.532 70.07 215.992 70.28 214.452 70.42C212.912 70.56 211.488 70.6533 210.182 70.7C208.875 70.7 207.848 70.7 207.102 70.7C204.722 70.7 202.318 70.63 199.892 70.49C197.512 70.3033 195.132 70.0933 192.752 69.86C193.592 69.6267 194.432 69.4633 195.272 69.37C196.158 69.23 197.045 69.16 197.932 69.16C199.425 69.16 200.895 69.1833 202.342 69.23C203.788 69.23 205.235 69.23 206.682 69.23C208.408 69.23 210.112 69.2067 211.792 69.16C213.472 69.0667 215.198 68.88 216.972 68.6L217.182 69.44C217.882 69.3 218.768 69.09 219.842 68.81C220.915 68.4833 221.942 68.0867 222.922 67.62C223.948 67.1533 224.812 66.57 225.512 65.87C226.258 65.17 226.632 64.3533 226.632 63.42C226.632 62.0667 226.142 60.8767 225.162 59.85C224.182 58.8233 222.922 57.9133 221.382 57.12C219.888 56.28 218.185 55.5567 216.272 54.95C214.358 54.3433 212.468 53.8067 210.602 53.34C208.782 52.8733 207.055 52.4533 205.422 52.08C203.788 51.7067 202.482 51.3567 201.502 51.03V51.45C202.482 51.8233 203.765 52.22 205.352 52.64C206.938 53.0133 208.642 53.4333 210.462 53.9C212.328 54.3667 214.195 54.9033 216.062 55.51C217.928 56.07 219.608 56.7467 221.102 57.54C222.642 58.3333 223.878 59.2433 224.812 60.27C225.792 61.2967 226.282 62.4633 226.282 63.77C226.282 64.5167 225.932 65.17 225.232 65.73C224.532 66.29 223.692 66.78 222.712 67.2C221.778 67.5733 220.822 67.8767 219.842 68.11C218.862 68.3433 218.115 68.5067 217.602 68.6C218.208 68.46 218.978 68.2733 219.912 68.04C220.892 67.76 221.825 67.41 222.712 66.99C223.645 66.57 224.438 66.08 225.092 65.52C225.745 64.9133 226.072 64.2133 226.072 63.42C226.072 62.1133 225.558 61.0167 224.532 60.13C223.505 59.2433 222.152 58.45 220.472 57.75C218.792 57.05 216.878 56.42 214.732 55.86C212.585 55.3 210.368 54.6933 208.082 54.04C205.842 53.3867 203.648 52.64 201.502 51.8C199.355 50.96 197.442 49.91 195.762 48.65C194.082 47.39 192.728 45.8967 191.702 44.17C190.675 42.4433 190.162 40.3667 190.162 37.94C190.162 35.56 190.722 33.5533 191.842 31.92C193.008 30.24 194.478 28.8867 196.252 27.86C198.072 26.7867 200.055 26.0167 202.202 25.55C204.348 25.0833 206.425 24.85 208.432 24.85C211.372 24.85 214.242 25.27 217.042 26.11C219.888 26.95 222.572 28.1167 225.092 29.61C224.812 29.7033 224.648 29.8433 224.602 30.03C224.555 30.17 224.508 30.3333 224.462 30.52C224.462 30.7067 224.415 30.87 224.322 31.01C224.275 31.15 224.135 31.22 223.902 31.22C223.715 31.22 223.342 31.15 222.782 31.01C222.268 30.8233 221.708 30.6367 221.102 30.45C220.495 30.2167 219.912 30.0067 219.352 29.82C218.792 29.6333 218.418 29.4933 218.232 29.4L218.022 30.03C218.442 30.2167 218.978 30.4967 219.632 30.87C220.332 31.1967 220.985 31.6167 221.592 32.13C222.245 32.5967 222.782 33.11 223.202 33.67C223.668 34.23 223.902 34.79 223.902 35.35C223.902 35.9567 223.622 36.26 223.062 36.26C222.362 36.26 221.522 36.0733 220.542 35.7C219.608 35.3267 218.558 34.93 217.392 34.51C216.225 34.0433 214.965 33.6233 213.612 33.25C212.305 32.8767 210.975 32.69 209.622 32.69C208.735 32.69 207.685 32.7833 206.472 32.97C205.305 33.11 204.162 33.4133 203.042 33.88C201.968 34.3 201.058 34.9067 200.312 35.7C199.565 36.4467 199.192 37.4033 199.192 38.57C199.192 39.6433 199.682 40.5533 200.662 41.3C201.688 42.0467 203.018 42.7233 204.652 43.33C206.332 43.9367 208.222 44.52 210.322 45.08C212.422 45.64 214.568 46.27 216.762 46.97C219.002 47.6233 221.172 48.3933 223.272 49.28C225.372 50.1667 227.238 51.24 228.872 52.5C230.552 53.76 231.882 55.2533 232.862 56.98C233.888 58.7067 234.402 60.7367 234.402 63.07C234.402 65.3567 233.935 67.2933 233.002 68.88C232.068 70.4667 230.832 71.7967 229.292 72.87C227.752 73.8967 226.002 74.7133 224.042 75.32C222.082 75.88 220.052 76.3233 217.952 76.65C215.898 76.93 213.845 77.0933 211.792 77.14C209.785 77.2333 207.965 77.28 206.332 77.28H199.332C198.912 77.28 198.328 77.2567 197.582 77.21C196.882 77.21 196.182 77.1633 195.482 77.07C194.782 77.0233 194.175 76.9067 193.662 76.72C193.148 76.5333 192.892 76.3 192.892 76.02L192.962 75.67C194.875 75.7633 196.765 75.8567 198.632 75.95C200.498 75.9967 202.388 76.02 204.302 76.02C206.075 76.02 207.848 76.02 209.622 76.02C211.208 75.9733 212.795 75.88 214.382 75.74C213.588 75.7867 212.795 75.8333 212.002 75.88C211.022 75.88 210.065 75.88 209.132 75.88H206.332C201.945 75.88 197.628 75.74 193.382 75.46C193.475 75.0867 193.522 74.83 193.522 74.69C193.522 74.5033 193.475 74.3167 193.382 74.13C193.288 74.13 193.148 74.1533 192.962 74.2C192.822 74.2 192.635 74.2 192.402 74.2C191.888 74.2 191.305 74.1767 190.652 74.13C190.045 74.0833 189.438 73.99 188.832 73.85C188.272 73.71 187.782 73.5233 187.362 73.29C186.988 73.01 186.802 72.6833 186.802 72.31ZM229.782 70.49C228.988 71.19 228.148 71.7733 227.262 72.24C226.468 72.66 225.652 73.0567 224.812 73.43C225.652 73.15 226.468 72.8233 227.262 72.45C228.148 72.0767 228.988 71.4233 229.782 70.49ZM282.505 32.76C278.912 32.76 275.342 32.8767 271.795 33.11C268.249 33.2967 264.702 33.39 261.155 33.39C261.762 33.4367 262.345 33.4833 262.905 33.53C263.512 33.53 264.142 33.53 264.795 33.53C266.942 33.53 269.065 33.5067 271.165 33.46C273.312 33.3667 275.459 33.32 277.605 33.32H279.705C280.405 33.32 281.129 33.3433 281.875 33.39C281.222 33.81 280.522 34.1133 279.775 34.3C279.075 34.4867 278.352 34.6267 277.605 34.72C276.905 34.7667 276.159 34.79 275.365 34.79C274.619 34.79 273.872 34.8133 273.125 34.86L272.495 34.02C271.422 34.2067 270.349 34.3233 269.275 34.37C268.202 34.4167 267.129 34.44 266.055 34.44L259.825 34.37L259.895 35L271.585 34.93C267.619 35.1633 263.722 35.3033 259.895 35.35C259.942 35.9567 259.989 36.5633 260.035 37.17C260.082 37.73 260.152 38.3133 260.245 38.92L259.405 39.13C259.779 40.7167 260.035 42.4667 260.175 44.38C260.362 46.2467 260.525 48.16 260.665 50.12C260.805 52.08 260.992 54.0167 261.225 55.93C261.505 57.7967 261.902 59.5 262.415 61.04L262.625 60.83C262.345 59.2433 262.089 57.54 261.855 55.72C261.622 53.8533 261.389 51.9633 261.155 50.05C260.969 48.09 260.782 46.1767 260.595 44.31C260.455 42.5367 260.339 40.88 260.245 39.34C260.432 41.8133 260.712 44.4033 261.085 47.11C261.505 49.8633 261.949 52.6633 262.415 55.51C262.882 58.31 263.325 61.0867 263.745 63.84C264.212 66.5933 264.632 69.23 265.005 71.75C265.099 72.5433 265.215 73.4067 265.355 74.34C265.495 75.2267 265.565 76.1367 265.565 77.07V77.91C265.565 78.2367 265.519 78.54 265.425 78.82C265.099 78.82 264.772 78.8667 264.445 78.96C264.165 79.1 263.862 79.17 263.535 79.17C263.022 79.17 262.695 78.9133 262.555 78.4C262.462 77.8867 262.415 77.4433 262.415 77.07H261.785C261.739 77.35 261.645 77.7 261.505 78.12C261.412 78.5867 261.249 79.03 261.015 79.45C260.829 79.87 260.572 80.22 260.245 80.5C259.965 80.78 259.639 80.92 259.265 80.92C258.799 80.92 258.379 80.5933 258.005 79.94C257.632 79.2867 257.282 78.4467 256.955 77.42C256.675 76.3933 256.419 75.2733 256.185 74.06C255.999 72.8 255.812 71.61 255.625 70.49C255.485 69.3233 255.345 68.2733 255.205 67.34C255.112 66.4067 255.019 65.73 254.925 65.31C254.459 63.35 254.015 61.2033 253.595 58.87C253.222 56.5367 252.895 54.18 252.615 51.8C252.335 49.42 252.102 47.0633 251.915 44.73C251.775 42.35 251.705 40.1333 251.705 38.08C251.705 37.7533 251.705 37.45 251.705 37.17C251.752 36.8433 251.775 36.5167 251.775 36.19V35.77C251.775 35.5833 251.752 35.3967 251.705 35.21C248.952 35.1633 246.339 35.0467 243.865 34.86C241.392 34.6267 238.639 34.3233 235.605 33.95C235.652 33.67 235.675 33.3667 235.675 33.04C235.675 32.7133 235.699 32.41 235.745 32.13C235.839 31.85 235.955 31.6167 236.095 31.43C236.282 31.1967 236.585 31.08 237.005 31.08C237.285 31.08 237.612 31.1267 237.985 31.22L238.195 30.59C237.635 30.3567 236.982 29.9833 236.235 29.47C235.489 28.9567 235.115 28.35 235.115 27.65C235.115 27.23 235.279 26.9267 235.605 26.74C235.932 26.5067 236.329 26.3433 236.795 26.25C237.262 26.1567 237.729 26.11 238.195 26.11C238.662 26.0633 239.012 26.04 239.245 26.04C240.925 26.04 242.582 26.1333 244.215 26.32C245.895 26.5067 247.575 26.6 249.255 26.6C253.502 26.6 257.725 26.67 261.925 26.81C266.125 26.9033 270.349 26.95 274.595 26.95C275.435 26.95 276.252 26.8333 277.045 26.6C277.885 26.3667 278.725 26.25 279.565 26.25C279.892 26.25 280.172 26.3433 280.405 26.53C280.685 26.7167 280.825 26.9967 280.825 27.37C279.565 27.6033 278.282 27.79 276.975 27.93C275.809 28.0233 274.619 28.1167 273.405 28.21C274.619 28.21 275.809 28.1633 276.975 28.07C278.235 27.9767 279.519 27.8833 280.825 27.79V29.12L282.085 28.91C282.459 29.0033 282.809 29.19 283.135 29.47C283.462 29.7033 283.625 30.0533 283.625 30.52C283.625 30.94 283.509 31.36 283.275 31.78C283.042 32.1533 282.785 32.48 282.505 32.76ZM257.935 35.35C258.029 36.7033 258.145 38.1967 258.285 39.83C258.472 41.4633 258.659 43.12 258.845 44.8C259.032 46.48 259.219 48.1367 259.405 49.77C259.639 51.3567 259.849 52.8267 260.035 54.18C259.895 52.8733 259.732 51.4033 259.545 49.77C259.405 48.1367 259.265 46.48 259.125 44.8C258.985 43.12 258.845 41.4633 258.705 39.83C258.612 38.1967 258.565 36.7033 258.565 35.35H257.935ZM270.675 28.21H266.825C265.659 28.21 264.492 28.1867 263.325 28.14C263.885 28.2333 264.422 28.3267 264.935 28.42C265.589 28.56 266.312 28.63 267.105 28.63C267.665 28.63 268.249 28.5833 268.855 28.49C269.509 28.3967 270.115 28.3033 270.675 28.21ZM258.215 35H258.565V34.37H258.215V35ZM331.215 31.92C331.028 32.6667 330.888 33.4367 330.795 34.23C330.748 35.0233 330.725 35.84 330.725 36.68C330.725 38.5 330.748 40.3667 330.795 42.28C330.842 44.1467 330.865 45.8967 330.865 47.53C330.865 50.8433 330.608 54.2033 330.095 57.61C329.628 60.97 328.718 64.05 327.365 66.85C326.012 69.65 324.098 72.03 321.625 73.99C319.152 75.9033 315.955 77.07 312.035 77.49C316.282 77.07 319.688 75.8333 322.255 73.78C324.822 71.68 326.805 69.1133 328.205 66.08C329.605 63 330.538 59.64 331.005 56C331.472 52.36 331.705 48.79 331.705 45.29C331.705 43.8433 331.682 42.3967 331.635 40.95C331.588 39.5033 331.565 38.0567 331.565 36.61V35C331.565 34.44 331.588 33.9033 331.635 33.39C332.242 34.8367 332.592 36.61 332.685 38.71C332.825 40.81 332.895 42.7933 332.895 44.66C332.895 46.62 332.872 48.37 332.825 49.91C332.778 51.4033 332.615 53.13 332.335 55.09L331.635 56.14C331.262 59.4533 330.562 62.4867 329.535 65.24C328.508 67.9933 327.085 70.3733 325.265 72.38C323.445 74.34 321.205 75.88 318.545 77C315.885 78.0733 312.782 78.61 309.235 78.61C306.295 78.61 303.402 78.19 300.555 77.35C297.755 76.5567 295.258 75.11 293.065 73.01L292.925 73.5C295.118 75.6467 297.592 77.14 300.345 77.98C303.145 78.82 306.038 79.24 309.025 79.24C312.385 79.24 315.348 78.7267 317.915 77.7C320.482 76.6733 322.698 75.25 324.565 73.43C326.478 71.5633 328.042 69.3467 329.255 66.78C330.422 64.3067 331.332 61.5533 331.985 58.52C331.332 61.6467 330.445 64.47 329.325 66.99C328.205 69.6033 326.735 71.8433 324.915 73.71C323.095 75.5767 320.902 77 318.335 77.98C315.768 79.0067 312.712 79.52 309.165 79.52C305.105 79.52 301.605 78.89 298.665 77.63C295.772 76.37 293.392 74.5967 291.525 72.31C289.658 70.0233 288.282 67.2933 287.395 64.12C286.508 60.9467 286.065 57.4467 286.065 53.62C286.065 51.5667 286.205 49.56 286.485 47.6C286.812 45.5933 287.185 43.61 287.605 41.65C288.025 39.69 288.445 37.73 288.865 35.77C289.285 33.7633 289.612 31.7567 289.845 29.75H291.525C291.805 29.8433 291.992 30.0767 292.085 30.45C292.178 30.8233 292.225 31.1267 292.225 31.36C292.225 32.0133 292.178 32.6433 292.085 33.25C291.992 33.8567 291.898 34.4867 291.805 35.14H292.435C292.482 34.86 292.622 34.3233 292.855 33.53C293.135 32.69 293.438 31.85 293.765 31.01C294.138 30.17 294.535 29.4233 294.955 28.77C295.375 28.07 295.795 27.72 296.215 27.72C296.495 27.72 296.705 27.8833 296.845 28.21C296.985 28.5367 297.078 28.91 297.125 29.33C297.218 29.75 297.265 30.1933 297.265 30.66C297.312 31.08 297.335 31.4067 297.335 31.64C297.335 33.5533 297.195 35.4433 296.915 37.31C296.682 39.13 296.402 40.9733 296.075 42.84C295.748 44.7067 295.445 46.5733 295.165 48.44C294.932 50.3067 294.815 52.1733 294.815 54.04C294.815 56.5133 295.095 58.7767 295.655 60.83C296.215 62.8833 297.102 64.6567 298.315 66.15C299.575 67.5967 301.138 68.74 303.005 69.58C304.918 70.3733 307.205 70.77 309.865 70.77C312.712 70.77 315.092 70.07 317.005 68.67C318.965 67.27 320.528 65.4967 321.695 63.35C322.908 61.1567 323.748 58.7533 324.215 56.14C324.728 53.5267 324.985 51.03 324.985 48.65C324.985 46.69 324.892 44.7533 324.705 42.84C324.518 40.9267 324.425 38.99 324.425 37.03V36.82C324.425 36.4 324.472 35.84 324.565 35.14C324.705 34.44 325.055 34.09 325.615 34.09C325.708 34.09 325.778 34.7433 325.825 36.05C325.918 37.31 325.988 38.7567 326.035 40.39C326.082 42.0233 326.105 43.5867 326.105 45.08C326.152 46.5733 326.175 47.53 326.175 47.95V50.75C326.175 51.6367 326.128 52.5467 326.035 53.48C326.268 52.2667 326.385 51.0767 326.385 49.91C326.432 48.7433 326.455 47.5533 326.455 46.34C326.455 44.3333 326.408 42.3267 326.315 40.32L326.035 34.3H327.365C327.272 33.8333 327.225 33.1333 327.225 32.2C327.225 31.36 327.318 30.5433 327.505 29.75C327.692 28.91 328.088 28.49 328.695 28.49C328.975 28.49 329.255 28.63 329.535 28.91C329.815 29.19 330.048 29.5167 330.235 29.89C330.468 30.2633 330.655 30.66 330.795 31.08C330.982 31.4533 331.122 31.7333 331.215 31.92ZM320.575 68.32C319.922 68.6933 319.058 69.23 317.985 69.93C316.912 70.63 315.512 71.2833 313.785 71.89C314.438 71.75 315.092 71.5633 315.745 71.33C316.445 71.05 317.098 70.7467 317.705 70.42C318.312 70.0467 318.872 69.6733 319.385 69.3C319.898 68.9267 320.295 68.6 320.575 68.32ZM348.316 79.59C347.942 79.3567 347.709 78.82 347.616 77.98C347.522 77.14 347.476 76.1133 347.476 74.9V73.22H346.846C346.799 73.5 346.682 74.1533 346.496 75.18C346.356 76.2067 346.146 77.28 345.866 78.4C345.632 79.5667 345.329 80.5933 344.956 81.48C344.629 82.3667 344.256 82.81 343.836 82.81C343.462 82.81 343.159 82.32 342.926 81.34C342.692 80.36 342.529 79.2167 342.436 77.91C342.342 76.65 342.272 75.39 342.226 74.13C342.226 72.8233 342.226 71.8667 342.226 71.26C342.226 68.04 342.272 64.8667 342.366 61.74C342.459 58.5667 342.506 55.3933 342.506 52.22C342.506 49.0467 342.249 45.8967 341.736 42.77C341.222 39.5967 340.966 36.47 340.966 33.39C341.619 32.55 342.226 31.6867 342.786 30.8C343.392 29.9133 343.976 29.0033 344.536 28.07C346.216 27.65 347.966 27.2533 349.786 26.88C351.606 26.5067 353.402 26.32 355.176 26.32C360.076 26.32 364.252 27.09 367.706 28.63C371.206 30.1233 374.052 32.27 376.246 35.07C378.439 37.8233 380.049 41.1367 381.076 45.01C382.102 48.8367 382.616 53.06 382.616 57.68C382.616 65.1467 380.562 70.7 376.456 74.34C372.349 77.9333 366.609 79.73 359.236 79.73C358.956 79.73 358.512 79.6833 357.906 79.59C357.299 79.5433 356.879 79.38 356.646 79.1C357.952 78.9133 359.446 78.68 361.126 78.4C362.852 78.1667 364.579 77.8633 366.306 77.49C368.032 77.1167 369.666 76.65 371.206 76.09C372.792 75.4833 374.099 74.7367 375.126 73.85C373.726 74.7833 372.279 75.53 370.786 76.09C369.339 76.6033 367.846 77 366.306 77.28C364.812 77.56 363.272 77.77 361.686 77.91C360.099 78.05 358.512 78.2133 356.926 78.4L357.136 77.63L356.926 77.07C356.039 77.21 355.222 77.35 354.476 77.49C353.776 77.63 353.029 77.7 352.236 77.7C351.442 77.7 350.672 77.6067 349.926 77.42L349.856 79.45L348.316 79.59ZM353.286 73.64C356.506 73.64 359.492 73.5467 362.246 73.36C365.046 73.1733 367.472 72.5667 369.526 71.54C371.579 70.5133 373.189 68.95 374.356 66.85C375.569 64.7033 376.176 61.6933 376.176 57.82C376.176 55.9067 376.036 53.9 375.756 51.8C375.522 49.6533 375.056 47.5767 374.356 45.57C373.702 43.5167 372.792 41.65 371.626 39.97C370.552 38.3833 369.199 37.0767 367.566 36.05C369.152 37.1233 370.459 38.4533 371.486 40.04C372.652 41.7667 373.539 43.6333 374.146 45.64C374.799 47.6467 375.242 49.7233 375.476 51.87C375.756 53.97 375.896 55.9767 375.896 57.89C375.896 60.4567 375.662 62.6033 375.196 64.33C374.729 66.01 374.076 67.3867 373.236 68.46C372.396 69.4867 371.346 70.28 370.086 70.84C368.872 71.4 367.496 71.82 365.956 72.1C364.462 72.3333 362.806 72.52 360.986 72.66C359.166 72.7533 357.229 72.87 355.176 73.01C356.809 72.31 358.559 71.8433 360.426 71.61C362.339 71.3767 364.159 71.0733 365.886 70.7C367.659 70.3267 369.246 69.6967 370.646 68.81C372.046 67.8767 373.096 66.36 373.796 64.26L374.636 63.98C374.822 63.0467 374.939 62.23 374.986 61.53C375.032 60.7833 375.056 59.9433 375.056 59.01C375.056 56.1167 374.822 53.2233 374.356 50.33C373.889 47.39 373.026 44.7533 371.766 42.42C370.506 40.04 368.756 38.1267 366.516 36.68C364.276 35.1867 361.406 34.44 357.906 34.44C356.599 34.44 355.292 34.5333 353.986 34.72C352.726 34.86 351.466 35.07 350.206 35.35C350.299 35.3967 350.346 35.4667 350.346 35.56C350.346 35.7 350.322 35.77 350.276 35.77C352.749 35.2567 355.129 35 357.416 35C360.262 35 362.736 35.5133 364.836 36.54C366.936 37.52 368.662 38.8967 370.016 40.67C371.416 42.3967 372.442 44.4267 373.096 46.76C373.796 49.0933 374.169 51.59 374.216 54.25C373.842 51.5433 373.329 49.0467 372.676 46.76C372.022 44.4267 371.066 42.42 369.806 40.74C368.546 39.06 366.912 37.7533 364.906 36.82C362.899 35.84 360.356 35.35 357.276 35.35C356.109 35.35 354.942 35.3733 353.776 35.42C352.609 35.4667 351.466 35.6767 350.346 36.05C350.579 38.9433 350.789 41.8133 350.976 44.66C351.162 47.5067 351.256 50.3767 351.256 53.27C351.256 57.0967 351.092 60.8767 350.766 64.61C350.486 68.2967 350.229 72.03 349.996 75.81C350.462 75.3433 350.999 74.97 351.606 74.69C352.212 74.3633 352.772 74.0133 353.286 73.64ZM381.216 58.03C381.216 55.7433 381.052 53.4333 380.726 51.1C380.446 48.7667 379.979 46.5033 379.326 44.31C379.979 46.69 380.422 49.07 380.656 51.45C380.936 53.83 381.076 56.2333 381.076 58.66C381.076 59.8733 381.006 61.11 380.866 62.37C380.819 62.51 380.796 62.65 380.796 62.79C381.076 61.25 381.216 59.6633 381.216 58.03ZM374.426 58.31C374.426 59.01 374.379 59.6867 374.286 60.34C374.332 60.06 374.356 59.78 374.356 59.5V57.19C374.356 57.2367 374.356 57.2833 374.356 57.33C374.402 57.61 374.426 57.9367 374.426 58.31ZM374.356 57.19C374.356 56.91 374.332 56.6533 374.286 56.42C374.332 56.7 374.356 56.9567 374.356 57.19ZM380.096 66.01C380.189 65.73 380.259 65.45 380.306 65.17C380.259 65.45 380.189 65.73 380.096 66.01ZM390.618 72.73C391.598 70.07 392.274 67.2 392.648 64.12C393.021 60.9933 393.301 57.8667 393.488 54.74C393.488 54.2733 393.464 53.83 393.418 53.41C393.418 53.0367 393.418 52.6867 393.418 52.36C393.278 55.8133 392.998 59.2667 392.578 62.72C392.204 66.2667 391.411 69.5333 390.198 72.52C390.011 72.1467 389.871 71.82 389.778 71.54C389.684 71.26 389.638 70.9333 389.638 70.56C389.638 69.44 389.824 68.2733 390.198 67.06C390.571 65.8467 390.804 64.5867 390.898 63.28L391.878 62.86C391.878 60.5733 391.971 58.31 392.158 56.07C392.344 53.7833 392.438 51.4967 392.438 49.21C392.438 48.0433 392.391 46.9 392.298 45.78C392.251 44.66 392.111 43.4933 391.878 42.28H391.458C391.738 45.5933 391.878 48.7667 391.878 51.8C391.878 53.34 391.831 54.81 391.738 56.21C391.644 57.5167 391.481 58.8467 391.248 60.2C391.388 59.1733 391.481 58.1933 391.528 57.26C391.621 56.1867 391.668 55.0433 391.668 53.83C391.668 50.05 391.504 46.2233 391.178 42.35C390.898 38.43 390.641 34.4167 390.408 30.31V28.35C390.548 27.79 390.618 27.1833 390.618 26.53C390.664 25.8767 390.734 25.2467 390.828 24.64C390.921 24.0333 391.084 23.5433 391.318 23.17C391.598 22.75 392.041 22.54 392.648 22.54L393.838 22.89L394.258 23.73H394.888C395.074 23.45 395.284 23.31 395.518 23.31C395.798 23.31 396.078 23.4267 396.358 23.66C396.638 23.8467 396.964 23.94 397.338 23.94C398.038 23.94 398.528 24.43 398.808 25.41C399.088 26.3433 399.274 27.5333 399.368 28.98C399.461 30.38 399.508 31.9433 399.508 33.67C399.508 35.35 399.601 36.9367 399.788 38.43C399.928 39.7833 400.044 41.16 400.138 42.56C400.278 43.9133 400.348 45.29 400.348 46.69C400.348 48.09 400.301 49.7233 400.208 51.59C400.114 53.4567 399.974 55.3933 399.788 57.4C399.648 59.36 399.461 61.32 399.228 63.28C398.994 65.24 398.738 66.99 398.458 68.53C398.178 70.07 397.851 71.33 397.478 72.31C397.104 73.2433 396.731 73.71 396.358 73.71C396.264 73.71 396.124 73.6633 395.938 73.57C396.264 72.0767 396.568 70.5833 396.848 69.09C397.174 67.5967 397.454 66.0333 397.688 64.4C397.361 65.8933 397.011 67.4333 396.638 69.02C396.311 70.56 395.938 72.0067 395.518 73.36C395.331 73.1733 395.098 73.08 394.818 73.08C394.724 73.08 394.608 73.1967 394.468 73.43C394.374 73.6633 394.234 73.9433 394.048 74.27C393.861 74.55 393.628 74.8067 393.348 75.04C393.068 75.2733 392.764 75.39 392.438 75.39C392.111 75.39 391.854 75.32 391.668 75.18C391.481 75.04 391.318 74.8767 391.178 74.69C391.084 74.4567 390.968 74.2233 390.828 73.99C390.734 73.7567 390.594 73.5467 390.408 73.36L390.618 72.73ZM398.738 52.57C398.458 53.5033 398.248 54.3667 398.108 55.16C398.014 55.9067 397.944 56.63 397.898 57.33C397.898 58.03 397.898 58.7533 397.898 59.5C397.898 60.1533 397.874 60.8767 397.828 61.67C398.014 60.0833 398.178 58.6367 398.318 57.33C398.504 55.93 398.644 54.3433 398.738 52.57ZM391.248 60.48C391.248 60.3867 391.248 60.2933 391.248 60.2C391.248 60.2933 391.248 60.3867 391.248 60.48ZM424.388 81.34C426.441 81.9933 428.541 82.32 430.688 82.32C433.115 82.32 435.378 81.9467 437.478 81.2C439.578 80.4533 441.491 79.4267 443.218 78.12C444.945 76.8133 446.461 75.2967 447.768 73.57C448.701 72.3567 449.518 71.05 450.218 69.65C449.611 70.9567 448.911 72.24 448.118 73.5C446.998 75.2733 445.598 76.8367 443.918 78.19C442.285 79.5433 440.395 80.6167 438.248 81.41C436.101 82.25 433.675 82.67 430.968 82.67H430.058C426.185 82.67 422.825 81.8067 419.978 80.08C417.131 78.3533 414.775 76.16 412.908 73.5C411.041 70.7933 409.641 67.7833 408.708 64.47C407.821 61.1567 407.378 57.89 407.378 54.67C407.378 53.3167 407.448 51.8933 407.588 50.4C407.728 48.86 408.031 47.32 408.498 45.78C408.965 44.24 409.618 42.7467 410.458 41.3C411.345 39.8067 412.535 38.4533 414.028 37.24C415.241 36.26 416.548 35.4433 417.948 34.79C419.395 34.09 420.818 33.6933 422.218 33.6C422.078 33.6933 422.008 33.7867 422.008 33.88C422.008 34.0667 422.101 34.2767 422.288 34.51C422.521 34.6967 422.638 34.9067 422.638 35.14V35.28C422.638 35.4667 422.521 35.6067 422.288 35.7C422.101 35.7933 421.775 35.9333 421.308 36.12C420.841 36.26 420.235 36.4933 419.488 36.82C418.741 37.1467 417.855 37.6367 416.828 38.29C417.108 38.57 417.248 38.78 417.248 38.92C418.135 38.4533 418.951 38.1267 419.698 37.94C420.445 37.7533 421.145 37.66 421.798 37.66C423.151 37.66 424.131 37.8933 424.738 38.36C425.345 38.8267 425.648 39.1767 425.648 39.41C425.648 39.7833 425.345 40.0867 424.738 40.32C424.178 40.5533 423.501 40.8567 422.708 41.23C421.961 41.5567 421.168 42.0233 420.328 42.63C419.488 43.19 418.835 44.03 418.368 45.15C417.621 46.27 417.038 47.67 416.618 49.35C416.245 51.03 416.058 52.7333 416.058 54.46C416.058 57.4 416.408 60.0833 417.108 62.51C417.808 64.9367 418.788 67.0367 420.048 68.81C421.355 70.5833 422.918 71.96 424.738 72.94C426.605 73.92 428.705 74.41 431.038 74.41C433.278 74.41 435.285 73.85 437.058 72.73C438.878 71.61 440.418 70.0933 441.678 68.18C442.938 66.22 443.895 63.98 444.548 61.46C445.201 58.8933 445.528 56.1633 445.528 53.27C445.528 51.87 445.435 50.4933 445.248 49.14C445.108 47.74 444.781 46.41 444.268 45.15C443.801 43.89 443.125 42.7 442.238 41.58C441.398 40.46 440.278 39.4333 438.878 38.5C437.105 37.5667 435.658 36.9133 434.538 36.54C433.418 36.12 432.858 35.7233 432.858 35.35C432.858 35.21 432.951 35.0467 433.138 34.86C435.471 35.3733 437.571 36.2133 439.438 37.38C441.165 38.4533 442.611 39.8533 443.778 41.58C442.518 39.6667 441.095 38.1967 439.508 37.17C437.781 36.0033 435.728 35.0933 433.348 34.44C433.581 34.2067 433.698 33.9967 433.698 33.81C433.698 33.6233 433.348 33.46 432.648 33.32C431.995 33.18 431.271 33.0167 430.478 32.83C429.685 32.6433 428.938 32.41 428.238 32.13C427.585 31.85 427.258 31.5 427.258 31.08C427.258 30.5667 427.678 30.1933 428.518 29.96C429.358 29.7267 430.385 29.4467 431.598 29.12C431.925 29.12 432.228 29.1667 432.508 29.26C432.835 29.3533 433.115 29.4467 433.348 29.54C435.635 29.96 437.805 30.7067 439.858 31.78C441.958 32.8533 443.825 34.23 445.458 35.91C447.138 37.59 448.538 39.5967 449.658 41.93C450.778 44.2167 451.501 46.8067 451.828 49.7C451.595 46.9467 450.965 44.45 449.938 42.21C448.958 39.9233 447.651 37.8933 446.018 36.12C444.431 34.3467 442.565 32.8533 440.418 31.64C438.271 30.4267 435.985 29.4933 433.558 28.84C435.705 28.84 437.828 29.2833 439.928 30.17C442.075 31.01 444.035 32.27 445.808 33.95C447.581 35.5833 449.121 37.6133 450.428 40.04C451.735 42.4667 452.668 45.2433 453.228 48.37C453.135 48.37 452.995 48.4167 452.808 48.51C452.621 48.5567 452.481 48.58 452.388 48.58C452.808 50.96 453.018 53.27 453.018 55.51C453.018 58.7767 452.505 61.9733 451.478 65.1C450.498 68.2267 449.051 71.0267 447.138 73.5C445.271 75.9267 442.961 77.8867 440.208 79.38C437.455 80.92 434.305 81.69 430.758 81.69C428.658 81.69 426.605 81.3867 424.598 80.78C422.591 80.1733 420.725 79.3567 418.998 78.33C419.091 78.4233 419.138 78.5167 419.138 78.61C419.138 78.7033 419.021 78.75 418.788 78.75C420.515 79.87 422.381 80.7333 424.388 81.34ZM451.968 56.28C451.735 58.1 451.385 59.99 450.918 61.95C450.498 63.8633 449.891 65.7533 449.098 67.62C448.351 69.4867 447.395 71.2367 446.228 72.87C445.061 74.4567 443.685 75.8333 442.098 77C443.685 75.88 445.085 74.55 446.298 73.01C447.511 71.4233 448.515 69.6967 449.308 67.83C450.148 65.9633 450.778 64.0033 451.198 61.95C451.665 59.85 451.945 57.7733 452.038 55.72C451.991 55.86 451.968 56.0467 451.968 56.28ZM446.368 60.34C445.995 62.1133 445.435 63.84 444.688 65.52C443.941 67.1533 442.985 68.6233 441.818 69.93C443.031 68.67 444.011 67.2233 444.758 65.59C445.505 63.9567 446.041 62.2067 446.368 60.34ZM453.578 54.18C453.578 54.9733 453.531 55.79 453.438 56.63C453.391 57.4233 453.321 58.24 453.228 59.08C453.228 58.2867 453.275 57.4 453.368 56.42C453.461 55.3933 453.508 54.2733 453.508 53.06V51.8C453.555 52.1733 453.578 52.57 453.578 52.99V54.18ZM446.368 60.34C446.601 59.3133 446.765 58.2867 446.858 57.26C446.998 56.1867 447.068 55.1133 447.068 54.04C447.068 52.8733 446.998 51.6833 446.858 50.47C446.905 50.9833 446.928 51.4733 446.928 51.94C446.975 52.4067 446.998 52.8967 446.998 53.41C446.998 55.79 446.788 58.1 446.368 60.34ZM453.228 59.5L452.598 62.93C452.365 63.77 452.131 64.61 451.898 65.45C451.665 66.2433 451.385 67.0367 451.058 67.83C451.571 66.3833 451.991 64.9367 452.318 63.49C452.691 62.0433 452.995 60.62 453.228 59.22V59.5ZM418.858 78.89C418.858 78.8433 418.835 78.7967 418.788 78.75C418.788 78.7967 418.811 78.8433 418.858 78.89ZM451.058 67.83C450.965 68.0167 450.895 68.18 450.848 68.32C450.895 68.18 450.965 68.0167 451.058 67.83ZM450.288 69.51C450.381 69.37 450.451 69.23 450.498 69.09C450.451 69.23 450.381 69.37 450.288 69.51ZM444.198 42.14C444.151 42.0467 444.081 41.9533 443.988 41.86C444.035 41.9533 444.105 42.0467 444.198 42.14ZM450.848 68.32C450.755 68.5533 450.661 68.7867 450.568 69.02C450.661 68.7867 450.755 68.5533 450.848 68.32Z" fill="#2663F2"/>
</svg>
